<svg width="461" height="221" viewBox="0 0 461 221" fill="none" xmlns="http://www.w3.org/2000/svg">
<path d="M40.854 84H20.064C14.564 84 10.472 82.9 7.788 80.7C5.148 78.5 3.828 75.112 3.828 70.536V49.944C3.828 45.368 5.148 41.98 7.788 39.78C10.472 37.58 14.564 36.48 20.064 36.48H36.564C37.4 36.48 37.994 36.678 38.346 37.074C38.742 37.426 38.94 38.02 38.94 38.856V46.842C38.94 47.678 38.742 48.294 38.346 48.69C37.994 49.042 37.4 49.218 36.564 49.218H22.836C21.472 49.218 20.46 49.504 19.8 50.076C19.14 50.604 18.81 51.418 18.81 52.518V68.292C18.81 69.392 19.052 70.206 19.536 70.734C20.064 71.262 20.834 71.526 21.846 71.526H28.248V61.23C28.248 60.394 28.424 59.8 28.776 59.448C29.172 59.052 29.788 58.854 30.624 58.854H40.854C41.69 58.854 42.284 59.052 42.636 59.448C43.032 59.8 43.23 60.394 43.23 61.23V81.624C43.23 82.46 43.032 83.076 42.636 83.472C42.284 83.824 41.69 84 40.854 84ZM66.1985 48.36V56.808H71.1485C72.2925 56.808 73.0625 56.522 73.4585 55.95C73.8545 55.334 74.0525 54.586 74.0525 53.706V51.462C74.0525 50.582 73.8545 49.856 73.4585 49.284C73.0625 48.668 72.2925 48.36 71.1485 48.36H66.1985ZM63.8225 84H53.6585C52.8225 84 52.2065 83.824 51.8105 83.472C51.4585 83.076 51.2825 82.46 51.2825 81.624V38.856C51.2825 38.02 51.4585 37.426 51.8105 37.074C52.2065 36.678 52.8225 36.48 53.6585 36.48H75.6365C80.5645 36.48 83.9525 37.514 85.8005 39.582C87.6925 41.606 88.6385 44.246 88.6385 47.502V50.538C88.6385 52.386 88.3525 53.97 87.7805 55.29C87.2525 56.566 86.3065 57.49 84.9425 58.062C87.3185 58.326 89.2325 59.294 90.6845 60.966C92.1805 62.638 92.9285 64.86 92.9285 67.632V81.624C92.9285 82.46 92.7305 83.076 92.3345 83.472C91.9825 83.824 91.3885 84 90.5525 84H80.3225C79.4865 84 78.8705 83.824 78.4745 83.472C78.1225 83.076 77.9465 82.46 77.9465 81.624V71.526C77.9465 70.558 77.7485 69.854 77.3525 69.414C77.0005 68.93 76.3625 68.688 75.4385 68.688H66.1985V81.624C66.1985 82.46 66.0005 83.076 65.6045 83.472C65.2525 83.824 64.6585 84 63.8225 84ZM140.269 71.526C140.269 73.55 139.961 75.398 139.345 77.07C138.773 78.698 137.717 80.106 136.177 81.294C134.681 82.438 132.591 83.34 129.907 84C127.267 84.66 123.901 84.99 119.809 84.99C115.717 84.99 112.329 84.66 109.645 84C106.961 83.34 104.849 82.438 103.309 81.294C101.813 80.106 100.757 78.698 100.141 77.07C99.5691 75.398 99.2831 73.55 99.2831 71.526V49.02C99.2831 46.996 99.5691 45.17 100.141 43.542C100.757 41.87 101.813 40.44 103.309 39.252C104.849 38.064 106.961 37.14 109.645 36.48C112.329 35.82 115.717 35.49 119.809 35.49C123.901 35.49 127.267 35.82 129.907 36.48C132.591 37.14 134.681 38.064 136.177 39.252C137.717 40.44 138.773 41.87 139.345 43.542C139.961 45.17 140.269 46.996 140.269 49.02V71.526ZM114.265 69.15C114.265 70.03 114.595 70.778 115.255 71.394C115.915 71.966 117.433 72.252 119.809 72.252C122.185 72.252 123.703 71.966 124.363 71.394C125.023 70.778 125.353 70.03 125.353 69.15V51.396C125.353 50.56 125.023 49.856 124.363 49.284C123.703 48.668 122.185 48.36 119.809 48.36C117.433 48.36 115.915 48.668 115.255 49.284C114.595 49.856 114.265 50.56 114.265 51.396V69.15ZM170.715 84H149.859C149.023 84 148.407 83.824 148.011 83.472C147.659 83.076 147.483 82.46 147.483 81.624V73.902C147.483 73.066 147.659 72.472 148.011 72.12C148.407 71.724 149.023 71.526 149.859 71.526H167.613C168.185 71.526 168.603 71.35 168.867 70.998C169.175 70.602 169.329 70.14 169.329 69.612C169.329 68.864 169.175 68.314 168.867 67.962C168.603 67.61 168.185 67.412 167.613 67.368L157.713 65.982C154.633 65.542 152.147 64.53 150.255 62.946C148.407 61.362 147.483 58.722 147.483 55.026V48.096C147.483 44.356 148.693 41.496 151.113 39.516C153.533 37.492 156.877 36.48 161.145 36.48H179.625C180.461 36.48 181.055 36.678 181.407 37.074C181.803 37.426 182.001 38.02 182.001 38.856V46.71C182.001 47.546 181.803 48.162 181.407 48.558C181.055 48.91 180.461 49.086 179.625 49.086H164.247C163.675 49.086 163.235 49.284 162.927 49.68C162.619 50.032 162.465 50.494 162.465 51.066C162.465 51.638 162.619 52.122 162.927 52.518C163.235 52.914 163.675 53.134 164.247 53.178L174.081 54.498C177.161 54.938 179.647 55.95 181.539 57.534C183.431 59.118 184.377 61.758 184.377 65.454V72.384C184.377 76.124 183.145 79.006 180.681 81.03C178.261 83.01 174.939 84 170.715 84Z" fill="black"/>
<path d="M195.815 80.8327L279.617 131.254L195.068 189.854L195.815 80.8327Z" fill="#CF1717"/>
<rect x="196" width="264.655" height="133.772" fill="#CF1717"/>
<path d="M273.734 85H257.63C252.13 85 248.038 83.9 245.354 81.7C242.714 79.5 241.394 76.112 241.394 71.536V51.01C241.394 46.434 242.714 43.046 245.354 40.846C248.038 38.602 252.13 37.48 257.63 37.48H273.734C274.57 37.48 275.164 37.678 275.516 38.074C275.912 38.426 276.11 39.02 276.11 39.856V47.842C276.11 48.678 275.912 49.294 275.516 49.69C275.164 50.042 274.57 50.218 273.734 50.218H260.468C259.104 50.218 258.092 50.504 257.432 51.076C256.772 51.604 256.442 52.418 256.442 53.518V69.226C256.442 70.326 256.772 71.14 257.432 71.668C258.092 72.152 259.104 72.394 260.468 72.394H273.734C274.57 72.394 275.164 72.592 275.516 72.988C275.912 73.34 276.11 73.934 276.11 74.77V82.624C276.11 83.46 275.912 84.076 275.516 84.472C275.164 84.824 274.57 85 273.734 85ZM296.17 85H285.94C285.104 85 284.488 84.824 284.092 84.472C283.74 84.076 283.564 83.46 283.564 82.624V39.856C283.564 39.02 283.74 38.426 284.092 38.074C284.488 37.678 285.104 37.48 285.94 37.48H296.17C297.006 37.48 297.6 37.678 297.952 38.074C298.348 38.426 298.546 39.02 298.546 39.856V54.178H309.568V39.856C309.568 39.02 309.744 38.426 310.096 38.074C310.492 37.678 311.108 37.48 311.944 37.48H322.174C323.01 37.48 323.604 37.678 323.956 38.074C324.352 38.426 324.55 39.02 324.55 39.856V82.624C324.55 83.46 324.352 84.076 323.956 84.472C323.604 84.824 323.01 85 322.174 85H311.944C311.108 85 310.492 84.824 310.096 84.472C309.744 84.076 309.568 83.46 309.568 82.624V67.972H298.546V82.624C298.546 83.46 298.348 84.076 297.952 84.472C297.6 84.824 297.006 85 296.17 85ZM350.87 51.34L347.768 61.372H358.13L355.028 51.34C354.852 50.944 354.654 50.658 354.434 50.482C354.258 50.306 354.038 50.218 353.774 50.218H352.124C351.86 50.218 351.618 50.306 351.398 50.482C351.222 50.658 351.046 50.944 350.87 51.34ZM347.108 82.624C347.108 83.46 346.91 84.076 346.514 84.472C346.162 84.824 345.568 85 344.732 85H335.03C334.194 85 333.578 84.824 333.182 84.472C332.83 84.076 332.654 83.46 332.654 82.624V65.2C332.654 63.88 332.852 62.362 333.248 60.646C333.688 58.93 334.348 56.928 335.228 54.64L340.97 39.658C341.234 38.91 341.63 38.36 342.158 38.008C342.73 37.656 343.456 37.48 344.336 37.48H362.09C362.926 37.48 363.608 37.656 364.136 38.008C364.708 38.36 365.126 38.91 365.39 39.658L371.132 54.64C372.012 56.928 372.65 58.93 373.046 60.646C373.486 62.362 373.706 63.88 373.706 65.2V82.624C373.706 83.46 373.508 84.076 373.112 84.472C372.76 84.824 372.166 85 371.33 85H361.364C360.484 85 359.824 84.824 359.384 84.472C358.988 84.076 358.79 83.46 358.79 82.624V73.384H347.108V82.624ZM401.652 85H390.96C390.124 85 389.508 84.824 389.112 84.472C388.76 84.076 388.584 83.46 388.584 82.624V50.218H378.882C378.046 50.218 377.43 50.042 377.034 49.69C376.682 49.294 376.506 48.678 376.506 47.842V39.856C376.506 39.02 376.682 38.426 377.034 38.074C377.43 37.678 378.046 37.48 378.882 37.48H413.73C414.566 37.48 415.16 37.678 415.512 38.074C415.908 38.426 416.106 39.02 416.106 39.856V47.842C416.106 48.678 415.908 49.294 415.512 49.69C415.16 50.042 414.566 50.218 413.73 50.218H404.028V82.624C404.028 83.46 403.83 84.076 403.434 84.472C403.082 84.824 402.488 85 401.652 85Z" fill="white"/>
</svg>
