<svg width="1193" height="1082" viewBox="0 0 1193 1082" fill="none" xmlns="http://www.w3.org/2000/svg">
<g clip-path="url(#clip0_14_56)">
<path d="M1193 0H0V1082H1193V0Z" fill="url(#paint0_linear_14_56)"/>
<path d="M869.896 436.407C874.729 436.359 889.444 435.746 900.052 423.783C913.805 408.275 909 378.7 909 378.7C909 378.7 913.98 378.484 915.959 383.208C918.528 389.34 915.13 400.52 917.284 401.783C920.877 403.888 921.758 394.75 924.575 396.192C927.392 397.635 927.011 404.665 926.398 410.98C925.817 416.942 922.006 422.559 923.332 424.415C925.072 426.85 929.214 420.718 930.54 423.603C931.866 426.488 927.06 432.079 922.835 435.055C919.16 437.643 912.809 440.015 912.975 441.457C913.141 442.9 919.106 442.9 918.112 445.785C917.117 448.671 909.661 447.589 905.187 447.589C900.714 447.589 893.92 447.408 890.275 450.654C886.63 453.9 869.896 436.407 869.896 436.407Z" fill="url(#paint1_linear_14_56)"/>
<path d="M887.239 408.516C887.031 408.516 886.826 408.41 886.697 408.211C886.486 407.887 886.557 407.436 886.855 407.206C886.94 407.139 895.369 400.543 894.973 393.653C894.717 389.208 892.485 386.946 889.901 384.326C888.223 382.624 886.488 380.865 885.122 378.345C879.721 368.376 885.495 360.74 888.178 358.638C888.472 358.406 888.887 358.478 889.102 358.803C889.317 359.126 889.249 359.576 888.952 359.81C886.545 361.697 881.366 368.575 886.265 377.612C887.534 379.952 889.197 381.639 890.807 383.27C893.483 385.983 896.009 388.545 896.298 393.562C896.741 401.256 887.996 408.094 887.624 408.381C887.505 408.472 887.372 408.516 887.239 408.516Z" fill="#E8878E"/>
<path d="M877.076 390C876.942 390 876.809 389.957 876.692 389.868C872.177 386.375 870.922 381.665 870.665 378.329C870.301 373.62 871.748 369.292 873.293 367.61C873.552 367.329 873.972 367.329 874.23 367.61C874.489 367.891 874.489 368.349 874.23 368.63C872.877 370.103 871.667 374.089 871.985 378.208C872.22 381.24 873.359 385.519 877.461 388.692C877.759 388.923 877.828 389.373 877.616 389.697C877.489 389.895 877.283 390 877.076 390Z" fill="#E8878E"/>
<path d="M928.553 444.341C928.533 444.341 928.516 444.341 928.496 444.338C928.133 444.305 927.861 443.956 927.892 443.559C928.093 440.925 931.089 439.635 936.526 437.295C938.183 436.583 940.081 435.765 942.212 434.781C945.215 433.391 947.135 431.457 947.917 429.032C949.016 425.624 947.618 422.195 946.968 420.879C946.794 420.529 946.915 420.092 947.237 419.901C947.557 419.714 947.96 419.843 948.135 420.194C948.87 421.678 950.441 425.559 949.168 429.509C948.256 432.334 946.091 434.554 942.73 436.108C940.589 437.099 938.68 437.92 937.013 438.637C932.233 440.694 929.346 441.936 929.212 443.679C929.184 444.057 928.894 444.341 928.553 444.341Z" fill="#E8878E"/>
<path d="M808.932 352.684L809.987 352.771C810.459 352.834 810.999 352.896 811.415 352.982C812.277 353.14 813.13 353.338 813.961 353.596C815.629 354.101 817.226 354.788 818.735 355.616C821.754 357.275 824.42 359.489 826.705 362.033C831.269 367.136 834.356 373.541 835.887 380.29C837.383 386.899 837.685 393.722 836.721 400.529C835.724 407.297 833.504 414.152 829.045 420.142L818.293 410.111C820.834 407.128 822.717 402.694 823.625 397.967C824.554 393.232 824.591 388.103 823.743 383.269C822.937 378.586 821.029 374.138 818.24 370.654C816.847 368.919 815.234 367.438 813.495 366.346C812.627 365.801 811.727 365.351 810.815 365.012C810.359 364.836 809.9 364.703 809.44 364.586L808.871 364.454C808.634 364.407 808.23 364.364 807.917 364.319L808.932 352.684Z" fill="url(#paint2_linear_14_56)"/>
<path d="M819.216 372.918C818.887 372.918 818.601 372.651 818.56 372.286C818.515 371.891 818.772 371.53 819.135 371.481C821.424 371.168 825.531 369.692 827.335 363.311C827.441 362.93 827.815 362.715 828.162 362.834C828.513 362.95 828.708 363.354 828.601 363.735C826.581 370.891 821.907 372.557 819.301 372.912C819.272 372.916 819.244 372.918 819.216 372.918Z" fill="#FFA2BA"/>
<path d="M828.588 388.53C826.831 388.53 825.197 388.22 824.034 387.846C823.683 387.734 823.483 387.333 823.586 386.951C823.688 386.568 824.054 386.348 824.409 386.463C827.3 387.389 833.447 387.943 835.996 383.403C836.186 383.063 836.591 382.954 836.908 383.164C837.22 383.371 837.319 383.816 837.128 384.156C835.229 387.544 831.716 388.53 828.588 388.53Z" fill="#FFA2BA"/>
<path d="M831.97 405.252C826.493 405.252 823.527 402.168 822.379 400.61C822.149 400.298 822.194 399.845 822.481 399.596C822.766 399.349 823.182 399.396 823.411 399.707C824.673 401.419 828.421 405.193 835.951 403.279C836.32 403.188 836.664 403.43 836.749 403.817C836.833 404.205 836.611 404.593 836.255 404.684C834.681 405.082 833.256 405.252 831.97 405.252Z" fill="#FFA2BA"/>
<path d="M862.898 524.181C862.265 522.848 861.705 521.448 861.28 519.962C858.531 510.339 859.511 501.087 859.511 501.087C859.511 501.087 847.691 497 838.303 494.836C828.914 492.672 816.345 489.756 816.345 489.756C816.652 499.044 822.066 518.039 833.553 529.941C838.442 535.007 842.87 538.345 846.769 540.641C851.673 540.635 859.623 533.875 862.898 524.181Z" fill="url(#paint3_linear_14_56)"/>
<path d="M872.988 555.668C876.606 554.705 874.645 542.082 873.541 539.197C872.604 536.747 866.457 531.686 862.898 524.181C859.623 533.875 851.673 540.635 846.769 540.639C855.05 545.513 860.931 545.654 863.709 547.492C866.26 549.18 869.111 556.699 872.988 555.668Z" fill="url(#paint4_linear_14_56)"/>
<path d="M750.043 423.542C744.848 426.829 741.396 428.66 732.701 428.952C732.233 428.968 731.753 428.974 731.265 428.976C732.62 433.855 732.81 442.17 730.508 448.362C738.423 451.927 746.662 453.352 754.57 452.312C759.109 446.846 754.987 429.734 750.043 423.542Z" fill="url(#paint5_linear_14_56)"/>
<path d="M731.265 428.976C724.321 428.976 715.568 427.497 711.933 427.63C706.19 427.84 702.792 430.274 700.307 433.07C698.182 435.459 697.628 440.223 700.058 441.906C703.1 444.012 710.718 440.974 714.915 440.373C719.111 439.771 722.427 444.701 730.38 448.307C730.421 448.326 730.463 448.34 730.507 448.361C732.81 442.17 732.62 433.855 731.265 428.976Z" fill="url(#paint6_linear_14_56)"/>
<path d="M862.108 456.424C873.071 442.698 889.005 446.974 892.066 450.268C891.891 450.057 891.725 449.836 891.546 449.63C878.515 434.606 860.066 430.515 841.506 420.296C825.613 411.545 808.81 399.378 803.949 393.668C803.949 393.668 795.555 406.471 775.707 415.787C762.233 422.11 744.631 419.996 744.631 419.996C744.631 419.996 746.196 436.082 752.253 448.309C761.366 466.703 792.351 485.818 819.359 495.195C838.242 501.751 851.019 503.593 864.428 505.114C861.445 499.163 850.967 470.374 862.108 456.424Z" fill="url(#paint7_linear_14_56)"/>
<path d="M861.404 458.11C861.376 458.11 861.35 458.109 861.322 458.104C816.758 452.164 792.827 415.275 789.961 408.257C789.812 407.894 789.963 407.467 790.298 407.305C790.633 407.147 791.024 407.307 791.172 407.672C793.988 414.566 817.535 450.815 861.483 456.673C861.846 456.721 862.106 457.082 862.06 457.477C862.019 457.842 861.734 458.11 861.404 458.11Z" fill="#00E2EC"/>
<path d="M909.099 512.142C905.65 500.907 906.117 467.304 892.064 450.269C889.004 446.974 873.069 442.698 862.107 456.425C850.966 470.376 861.444 499.164 864.427 505.115C871.591 517.411 879.538 525.375 886.768 530.815C892.322 529.698 905.775 521.032 909.099 512.142Z" fill="url(#paint8_linear_14_56)"/>
<path d="M914.136 552.181C919.719 551.918 918.914 536.848 917.947 530.36C916.953 523.688 911.653 519.406 909.331 512.868C909.25 512.641 909.176 512.389 909.099 512.142C905.775 521.032 892.322 529.698 886.769 530.815C894.419 536.571 901.264 539.503 905.52 541.723C907.66 542.837 909 552.422 914.136 552.181Z" fill="url(#paint9_linear_14_56)"/>
<path d="M901.213 523.104C901.045 523.104 900.877 523.035 900.747 522.895C873.399 493.451 875.913 466.105 876.859 455.811C876.895 455.414 877.225 455.133 877.584 455.164C877.947 455.203 878.215 455.557 878.177 455.953C877.249 466.061 874.78 492.91 901.679 521.869C901.938 522.149 901.941 522.606 901.684 522.889C901.555 523.033 901.384 523.104 901.213 523.104Z" fill="#00E2EC"/>
<path d="M821.016 423.603C816.488 418.587 806.435 415.127 797.322 419.275C785.104 424.835 774.285 442.224 766.577 451.956C770.968 453.031 776.978 456.098 779.592 461.382C781.407 465.049 782.063 468.955 782.281 471.863C795.406 469.219 810.351 462.854 818.862 453.899C830.125 442.049 825.655 428.743 821.016 423.603Z" fill="url(#paint10_linear_14_56)"/>
<path d="M766.577 451.956C764.842 454.146 763.264 455.952 761.863 457.145C753.527 464.246 745.663 469.261 742.311 473.014C739.411 476.26 736.677 481.31 739.494 484.195C743.341 488.136 748.857 484.647 755.07 478.785C760.04 474.096 762.641 474.347 775.853 472.887C777.917 472.659 780.077 472.307 782.282 471.865C782.064 468.956 781.408 465.051 779.594 461.384C776.977 456.098 770.968 453.031 766.577 451.956Z" fill="url(#paint11_linear_14_56)"/>
<path d="M779.592 462.105C779.318 462.105 779.062 461.919 778.965 461.62C778.846 461.244 779.029 460.832 779.375 460.703C797.123 453.999 817.607 429.819 820.415 423.297C820.572 422.937 820.968 422.781 821.297 422.951C821.628 423.12 821.772 423.55 821.616 423.91C818.658 430.777 798.206 455.117 779.81 462.065C779.737 462.092 779.665 462.105 779.592 462.105Z" fill="#00E2EC"/>
<path d="M721.443 382.65C724.25 382.577 736.843 378.609 738.997 374.552C741.151 370.496 746.288 374.281 746.288 374.281C746.288 374.281 746.868 385.372 735.766 385.733C724.663 386.094 721.443 382.65 721.443 382.65Z" fill="url(#paint12_linear_14_56)"/>
<path d="M729.065 383.552C729.368 382.561 731.127 380.909 734.276 379.691C737.674 378.377 740.49 377.977 745.046 377.888C740.944 380.923 742.809 385.449 739.44 385.733C731.597 386.394 729.065 383.552 729.065 383.552Z" fill="#D039A3"/>
<path d="M751.37 339.507C750.928 335.659 751.703 317.026 753.138 316.544C754.574 316.062 764.846 328.326 764.957 337.704C760.207 340.469 751.37 339.507 751.37 339.507Z" fill="url(#paint13_linear_14_56)"/>
<path d="M703.539 346.781C704.545 345.275 706.024 345.338 707.515 345.338C709.007 345.338 737.506 345.699 737.506 345.699C737.506 345.699 748.276 337.584 756.561 336.502C764.846 335.42 775.947 336.682 775.947 336.682C775.947 336.682 780.752 331.272 784.895 327.305C789.037 323.338 793.842 318.108 795.665 318.649C797.487 319.19 796.156 333.191 794.008 340.109C792.019 346.511 787.214 352.912 787.214 352.912C787.214 352.912 789.037 364.995 793.345 375.274C797.096 384.225 803.949 393.668 803.949 393.668C803.949 393.668 795.508 408.104 778.432 414.767C756.477 423.333 744.631 419.996 744.631 419.996C744.631 419.996 744.37 413.685 744.465 408.275C744.582 401.699 744.797 396.192 744.797 396.192C744.797 396.192 737.405 395.126 731.707 392.586C724.83 389.52 721.599 386.724 721.443 382.65C722.831 383.112 726.742 384.241 733.198 382.848C744.052 380.503 744.631 375.274 744.631 375.274C744.631 375.274 736.81 377.817 724.416 372.388C710.829 366.437 699.563 352.732 703.539 346.781Z" fill="url(#paint14_linear_14_56)"/>
<path d="M716.687 345.441C711.903 345.383 708.04 345.338 707.515 345.338C706.024 345.338 704.545 345.275 703.539 346.781C701.56 349.744 703.36 354.628 707.342 359.521C710.812 357.64 716.208 352.904 716.687 345.441Z" fill="url(#paint15_linear_14_56)"/>
<path d="M749.05 349.968C750.454 349.968 751.591 348.73 751.591 347.202C751.591 345.675 750.454 344.437 749.05 344.437C747.647 344.437 746.509 345.675 746.509 347.202C746.509 348.73 747.647 349.968 749.05 349.968Z" fill="#212F66"/>
<path d="M748.346 347.111C748.88 347.111 749.313 346.64 749.313 346.06C749.313 345.479 748.88 345.008 748.346 345.008C747.813 345.008 747.38 345.479 747.38 346.06C747.38 346.64 747.813 347.111 748.346 347.111Z" fill="#0090B2"/>
<path d="M765.4 355.737C767.047 355.737 768.382 354.284 768.382 352.491C768.382 350.698 767.047 349.245 765.4 349.245C763.752 349.245 762.417 350.698 762.417 352.491C762.417 354.284 763.752 355.737 765.4 355.737Z" fill="#212F66"/>
<path d="M764.183 352.673C764.763 352.673 765.233 352.161 765.233 351.53C765.233 350.899 764.763 350.388 764.183 350.388C763.603 350.388 763.133 350.899 763.133 351.53C763.133 352.161 763.603 352.673 764.183 352.673Z" fill="#0090B2"/>
<path d="M784.814 298.165C757.147 279.446 720.774 288.682 703.576 318.793C686.378 348.905 694.863 388.491 722.531 407.21C750.198 425.929 786.571 416.693 803.769 386.581C820.967 356.47 812.483 316.883 784.814 298.165ZM796.076 381.971C782.315 406.065 753.212 413.454 731.076 398.476C708.939 383.498 702.148 351.826 715.911 327.732C729.672 303.64 758.775 296.249 780.911 311.227C803.047 326.203 809.838 357.877 796.076 381.971Z" fill="url(#paint16_radial_14_56)"/>
<g opacity="0.5">
<path d="M749.635 304.277L748.171 304.632L746.823 305.023C745.91 305.307 745.006 305.617 744.114 305.951C742.721 306.473 741.203 305.666 740.722 304.15C740.243 302.634 740.983 300.982 742.377 300.46C742.564 300.389 742.772 300.342 742.961 300.319C744.01 300.194 745.058 300.101 746.104 300.039L747.706 299.978L749.205 299.984C750.308 299.987 751.2 300.965 751.196 302.165C751.195 303.198 750.527 304.061 749.635 304.277Z" fill="white"/>
</g>
<g opacity="0.5">
<path d="M735.923 308.871L734.427 309.593L733.073 310.309C732.156 310.823 731.249 311.365 730.36 311.939C728.586 313.096 726.887 314.39 725.276 315.811C722.057 318.65 719.204 321.997 716.822 325.721C716.118 326.827 714.722 327.103 713.706 326.336C712.709 325.584 712.45 324.104 713.104 323.003C715.603 318.822 718.649 315.009 722.135 311.731C723.877 310.093 725.728 308.586 727.67 307.229C728.642 306.554 729.636 305.913 730.648 305.304L732.222 304.407L733.703 303.631C735.022 302.94 736.606 303.543 737.242 304.978C737.879 306.414 737.324 308.139 736.003 308.83C735.982 308.842 735.945 308.859 735.923 308.871Z" fill="white"/>
</g>
<path d="M807.365 397.051C805.94 395.777 804.765 394.626 803.949 393.668C803.949 393.668 802.971 392.317 801.551 390.159C788.283 410.28 765.968 419.783 744.511 416.123C744.565 418.398 744.631 419.996 744.631 419.996C744.631 419.996 744.843 422.165 745.409 425.509C768.696 428.623 792.56 418.326 807.365 397.051Z" fill="url(#paint17_linear_14_56)"/>
<path d="M810.856 336.93C809.101 329.628 806.162 322.675 802.214 316.494C798.259 310.32 793.307 304.913 787.639 300.633C781.989 296.311 775.678 293.056 769.015 291.117C762.362 289.161 755.393 288.53 748.539 289.209C734.818 290.543 721.607 297.312 712.026 308.056C702.401 318.737 696.383 333.184 695.491 348.097C694.441 362.989 698.421 378.244 706.55 390.318C714.623 402.432 726.786 411.232 740.182 414.706C753.576 418.242 768.096 416.345 780.396 409.531C786.56 406.168 792.193 401.617 796.908 396.109C801.636 390.615 805.461 384.191 808.181 377.25C805.56 384.237 801.822 390.745 797.148 396.348C792.485 401.967 786.875 406.656 780.691 410.162C768.296 417.143 753.593 419.147 739.98 415.641C726.363 412.191 713.95 403.329 705.66 391.029C697.318 378.775 693.162 363.233 694.172 347.994C695.16 332.745 701.381 318.042 711.24 307.216C721.059 296.324 734.53 289.527 748.46 288.255C762.393 286.892 776.687 291.179 788.011 300.059C793.678 304.482 798.59 310.02 802.481 316.295C806.361 322.579 809.204 329.6 810.856 336.93Z" fill="white"/>
<path d="M810.84 336.935C808.658 337.727 806.562 338.931 804.661 340.586C795.983 348.137 794.571 361.919 801.51 371.367C803.377 373.909 805.662 375.874 808.169 377.244C813.153 364.188 813.89 350.052 810.84 336.935Z" fill="url(#paint18_linear_14_56)"/>
<path d="M279.277 430.838C278.486 431.679 277.544 433.061 276.683 434.533C275.818 436.016 275.009 437.624 274.269 439.282C272.79 442.606 271.585 446.137 270.661 449.728C268.816 456.918 268.11 464.379 268.694 471.562C269.268 478.752 271.144 485.651 274.175 491.918C277.196 498.196 281.351 503.85 286.251 508.834L272.139 523.754C266.406 516.834 261.469 508.843 258.084 500.018C254.678 491.215 252.915 481.641 252.923 472.225C252.912 462.794 254.58 453.57 257.526 444.992C259.01 440.699 260.804 436.554 262.976 432.581C264.065 430.594 265.246 428.649 266.588 426.741C267.947 424.842 269.391 422.938 271.492 421.058L279.277 430.838Z" fill="url(#paint19_linear_14_56)"/>
<path d="M269.887 449.516C263.365 449.516 259.007 444.096 257.778 442.359C257.555 442.043 257.61 441.59 257.9 441.348C258.19 441.107 258.605 441.166 258.829 441.481C260.02 443.167 264.407 448.626 270.867 448.03C271.231 447.991 271.552 448.291 271.583 448.688C271.613 449.085 271.343 449.434 270.978 449.467C270.608 449.5 270.244 449.516 269.887 449.516Z" fill="#00E2EC"/>
<path d="M261.05 472.176C257.347 472.176 254.415 470.657 252.635 469.415C252.327 469.2 252.237 468.754 252.435 468.418C252.632 468.082 253.042 467.984 253.351 468.2C256.006 470.054 261.47 472.58 268.241 468.647C268.562 468.46 268.965 468.591 269.137 468.944C269.309 469.296 269.187 469.732 268.864 469.92C266.019 471.573 263.381 472.176 261.05 472.176Z" fill="#00E2EC"/>
<path d="M258.783 498.832C258.261 498.832 257.772 498.813 257.321 498.786C256.955 498.763 256.677 498.423 256.698 498.024C256.719 497.626 257.033 497.319 257.398 497.346C261.365 497.599 268.662 496.973 272.916 489.993C273.118 489.661 273.528 489.569 273.835 489.791C274.14 490.01 274.223 490.459 274.02 490.791C269.888 497.57 263.194 498.832 258.783 498.832Z" fill="#00E2EC"/>
<path d="M801.078 753.553C799.753 748.743 772.357 748.744 768.822 748.262C766.875 747.997 760.103 724.034 747.779 696.479C726.847 700.174 711.161 719.409 706.94 726.928L706.943 726.935C731.359 749.822 748.271 771.926 756.672 774.47C764.42 776.817 802.404 758.362 801.078 753.553Z" fill="url(#paint20_linear_14_56)"/>
<path d="M747.779 696.479C737.722 673.995 723.969 649.122 706.119 632.775C682.673 611.303 658.36 601.592 639.359 599.669C639.359 599.669 613.626 611.585 600.698 624.916C588.105 637.9 587.221 648.241 584.79 666.273C609.754 667.955 631.853 674.942 663.662 693.682C679.973 703.291 694.44 715.216 706.943 726.937L706.94 726.929C711.161 719.409 726.847 700.174 747.779 696.479Z" fill="url(#paint21_linear_14_56)"/>
<path d="M701.883 697.529C701.465 697.529 701.053 697.316 700.796 696.913C674.502 655.963 611.625 631.638 597.928 629.118C597.207 628.984 596.72 628.241 596.842 627.455C596.964 626.67 597.637 626.149 598.37 626.273C612.289 628.834 676.206 653.58 702.967 695.26C703.386 695.914 703.24 696.812 702.641 697.27C702.409 697.444 702.144 697.529 701.883 697.529Z" fill="#9F36AD"/>
<path d="M478.857 404.668C478.857 404.668 459.471 400.701 425.338 402.504C414.742 403.064 405.408 404.141 397.496 405.382C395.458 413.943 392.303 422.015 388.211 429.4C394.353 430.997 399.655 431.718 425.503 445.243C451.352 458.768 489.635 486.463 503.545 483.654C519.618 480.408 559.882 464.358 561.538 440.194C563.278 414.835 478.857 404.668 478.857 404.668Z" fill="url(#paint22_linear_14_56)"/>
<path d="M561.538 440.194C561.933 434.427 557.865 429.449 551.357 425.194C545.477 429.62 538.245 437.402 535.967 448.309C533.94 458.015 535.121 466.439 536.09 470.859C549.155 463.325 560.669 452.881 561.538 440.194Z" fill="url(#paint23_linear_14_56)"/>
<path d="M484.932 422.341C484.83 422.341 484.725 422.323 484.623 422.287C450.466 410.13 395.925 413.63 391.829 415.299C391.319 415.511 390.743 415.225 390.55 414.666C390.356 414.106 390.617 413.483 391.132 413.274C395.457 411.508 449.907 407.654 485.241 420.232C485.763 420.418 486.048 421.028 485.877 421.596C485.741 422.051 485.351 422.341 484.932 422.341Z" fill="#9F36AD"/>
<path d="M560.544 430.816C555.49 416.479 533.915 404.88 520.478 397.634C516.586 395.535 512.343 393.549 508.007 391.626C507.436 396.289 505.584 403.74 499.733 409.958C492.693 417.437 483.618 418.782 477.86 418.875C481.955 424.375 486.181 429.492 490.454 433.343C501.231 443.055 523.226 457.931 539.842 459.566C546.983 460.268 553.279 458.64 556.967 452.872C559.61 448.736 564.402 441.758 560.544 430.816Z" fill="url(#paint24_linear_14_56)"/>
<path d="M556.968 452.87C559.611 448.736 564.402 441.759 560.544 430.816C559.514 427.895 557.79 425.089 555.597 422.408C549.623 425.747 538.844 434.531 535.967 448.309C535.194 452.009 534.893 455.519 534.864 458.699C536.561 459.09 538.234 459.406 539.843 459.564C546.984 460.267 553.28 458.638 556.968 452.87Z" fill="url(#paint25_linear_14_56)"/>
<path d="M508.009 391.626C491.854 384.458 474.402 378.147 468.915 370.044C463.453 361.977 465.518 348.133 463.116 338.305C461.324 330.975 455.742 322.165 450.192 323.157C443.438 324.363 442.404 334.338 443.73 342.273C445.055 350.207 446.712 356.699 442.57 357.781C439.021 358.709 434.416 355.603 432.297 354.716C430.861 354.114 425.21 353.964 427.16 361.208C429.701 370.646 444.834 378.253 453.506 386.274C460.356 392.612 468.784 406.683 477.861 418.874C483.62 418.78 492.694 417.436 499.734 409.957C505.585 403.74 507.437 396.289 508.009 391.626Z" fill="url(#paint26_linear_14_56)"/>
<path d="M587.884 558.673C587.884 558.673 565.571 521.283 517.464 482.572C465.343 440.631 392.054 421.637 385.074 421.98C385.074 421.98 371.487 441.095 356.574 451.194C341.662 461.293 310.843 462.375 310.843 462.375C310.843 462.375 315.814 508.36 337.354 563.902C344.293 581.796 351.765 594.862 360.754 612.005C387.062 662.184 428.817 714.12 484.822 717.366C476.759 668.435 511.002 594.379 587.884 558.673Z" fill="url(#paint27_linear_14_56)"/>
<path d="M546.309 586.089C545.922 586.089 545.538 585.906 545.277 585.551C488.594 508.971 419.566 457.666 377.677 437C377.011 436.671 376.715 435.817 377.017 435.09C377.319 434.365 378.104 434.044 378.772 434.371C420.925 455.169 490.365 506.767 547.34 583.742C547.799 584.362 547.71 585.271 547.14 585.769C546.895 585.985 546.601 586.089 546.309 586.089Z" fill="#FFA2BA"/>
<path d="M484.932 687.832C484.879 687.832 484.827 687.829 484.774 687.822C418.243 679.281 374.939 605.96 373.127 602.843C372.736 602.169 372.92 601.279 373.539 600.853C374.158 600.425 374.976 600.628 375.368 601.302C390.474 627.303 432.847 678.251 485.086 684.956C485.812 685.049 486.332 685.767 486.247 686.558C486.167 687.292 485.595 687.832 484.932 687.832Z" fill="#FFA2BA"/>
<path d="M391.26 511.184C388.831 524.168 433.237 568.23 446.049 568.23C458.482 568.23 504.025 512.288 517.775 482.826C517.669 482.741 517.57 482.656 517.464 482.572C498.376 467.212 476.45 454.932 455.979 445.55C437.163 457.964 393.925 496.951 391.26 511.184Z" fill="url(#paint28_linear_14_56)"/>
<path d="M443.062 527.579C449.47 527.579 454.664 521.925 454.664 514.951C454.664 507.977 449.47 502.324 443.062 502.324C436.654 502.324 431.459 507.977 431.459 514.951C431.459 521.925 436.654 527.579 443.062 527.579Z" fill="#1AA9E8"/>
<path d="M460.172 501.842C462.968 501.842 465.236 499.374 465.236 496.331C465.236 493.287 462.968 490.82 460.172 490.82C457.375 490.82 455.108 493.287 455.108 496.331C455.108 499.374 457.375 501.842 460.172 501.842Z" fill="#1AA9E8"/>
<path d="M443.062 542.723C428.992 542.723 417.545 530.264 417.545 514.951C417.545 499.639 428.992 487.18 443.062 487.18C457.131 487.18 468.579 499.639 468.579 514.951C468.579 530.264 457.131 542.723 443.062 542.723ZM443.062 490.065C430.453 490.065 420.196 501.229 420.196 514.951C420.196 528.674 430.453 539.837 443.062 539.837C455.67 539.837 465.927 528.674 465.927 514.951C465.927 501.229 455.67 490.065 443.062 490.065Z" fill="#1AA9E8"/>
<path d="M472.181 488.168C471.517 488.168 470.852 487.897 470.336 487.355C469.285 486.245 469.259 484.419 470.278 483.275L489.137 462.095C490.157 460.951 491.835 460.923 492.885 462.031C493.936 463.141 493.963 464.967 492.944 466.111L474.085 487.291C473.565 487.875 472.873 488.168 472.181 488.168Z" fill="#9F36AD"/>
<path d="M460.319 476.573C459.648 476.573 458.976 476.298 458.461 475.745C457.416 474.629 457.403 472.801 458.43 471.665L474.63 453.74C475.656 452.605 477.337 452.591 478.378 453.707C479.423 454.824 479.436 456.652 478.409 457.787L462.209 475.712C461.69 476.286 461.004 476.573 460.319 476.573Z" fill="#9F36AD"/>
<path d="M486.182 498.995C485.556 498.995 484.928 498.756 484.423 498.268C483.328 497.211 483.229 495.386 484.2 494.194L502.916 471.241C503.89 470.05 505.566 469.943 506.659 470.999C507.754 472.056 507.853 473.881 506.882 475.073L488.166 498.026C487.641 498.668 486.914 498.995 486.182 498.995Z" fill="#9F36AD"/>
<path d="M742.489 583.458C705.169 569.256 658.687 549.454 626.988 550.738C600.477 551.813 587.884 558.673 587.884 558.673C511.002 594.379 476.759 668.435 484.822 717.366C583.141 723.065 611.993 660.102 664.103 640.544C684.667 632.826 710.054 631.937 733.25 632.446C733.25 632.445 733.248 632.444 733.248 632.442C727.721 606.066 739.219 588.849 742.489 583.458Z" fill="url(#paint29_linear_14_56)"/>
<path d="M626.656 589.811C654.443 587.181 661.697 564.831 661.288 555.143C648.861 552.093 637.161 550.325 626.988 550.738C600.477 551.813 587.884 558.673 587.884 558.673C589.099 573.942 600.491 592.288 626.656 589.811Z" fill="url(#paint30_linear_14_56)"/>
<path d="M623.74 577.788C622.647 577.788 621.757 576.827 621.752 575.636L621.63 550.581C621.625 549.386 622.51 548.412 623.608 548.405C623.612 548.405 623.614 548.405 623.618 548.405C624.712 548.405 625.601 549.366 625.607 550.558L625.728 575.613C625.734 576.807 624.848 577.781 623.751 577.788C623.747 577.788 623.744 577.788 623.74 577.788Z" fill="#9F36AD"/>
<path d="M638.814 577.765C637.721 577.765 636.831 576.803 636.826 575.613L636.712 551.177C636.707 549.981 637.592 549.007 638.69 549.001C638.694 549.001 638.698 549.001 638.7 549.001C639.794 549.001 640.683 549.963 640.689 551.154L640.803 575.589C640.808 576.785 639.923 577.759 638.825 577.765C638.821 577.765 638.817 577.765 638.814 577.765Z" fill="#9F36AD"/>
<path d="M608.999 577.879C607.933 577.879 607.051 576.96 607.013 575.793L606.259 552.753C606.22 551.559 607.078 550.556 608.174 550.513C609.262 550.458 610.192 551.403 610.233 552.598L610.987 575.637C611.025 576.832 610.168 577.834 609.072 577.878C609.046 577.879 609.021 577.879 608.999 577.879Z" fill="#9F36AD"/>
<path d="M499.628 688.762C494.716 688.762 489.764 688.462 484.776 687.823C484.049 687.731 483.53 687.012 483.614 686.222C483.701 685.43 484.361 684.867 485.086 684.958C537.909 691.743 587.38 659.449 620.115 638.083C631.931 630.37 641.263 624.279 648.398 621.401C671.68 612.008 706.68 614.208 731.941 617.707C732.668 617.808 733.182 618.529 733.089 619.32C732.996 620.11 732.343 620.661 731.607 620.569C706.636 617.109 672.095 614.917 649.319 624.105C642.416 626.891 632.713 633.223 621.477 640.556C591.503 660.121 547.624 688.762 499.628 688.762Z" fill="#FFA2BA"/>
<path d="M794.671 631.167C800.438 628.532 808.149 623.427 816.874 607.723C822.617 597.385 827.037 578.039 823.501 578.149C815.769 578.39 806.582 596.114 794.008 597.264C783.279 598.245 764.473 591.822 742.489 583.458C739.219 588.849 727.721 606.066 733.248 632.442C733.248 632.443 733.25 632.445 733.25 632.446C760.644 633.045 784.979 635.593 794.671 631.167Z" fill="url(#paint31_linear_14_56)"/>
<path d="M758.218 623.232C762.61 623.232 766.171 619.357 766.171 614.576C766.171 609.796 762.61 605.92 758.218 605.92C753.825 605.92 750.264 609.796 750.264 614.576C750.264 619.357 753.825 623.232 758.218 623.232Z" fill="#9F36AD"/>
<path d="M353.261 651.364C356.243 620.707 365.191 603.936 366.185 579.952C367.269 553.779 359.416 477.759 314.488 467.063C306.535 465.169 297.587 467.154 297.587 467.154C279.471 494.835 262.019 535.229 263.564 587.165C265.269 644.413 295.784 682.175 313.935 701.857C314.089 702.023 314.234 702.182 314.386 702.346C320.065 696.528 333.649 686.633 353.546 686.226C352.508 674.633 352.191 662.353 353.261 651.364Z" fill="url(#paint32_linear_14_56)"/>
<path d="M289.965 611.51C284.356 592.209 270.481 587.122 263.558 586.75C263.562 586.89 263.562 587.025 263.566 587.165C264.361 613.86 271.422 636.315 280.572 654.679C288.21 648.587 295.599 630.891 289.965 611.51Z" fill="url(#paint33_linear_14_56)"/>
<path d="M268.452 622.763C267.591 622.763 266.799 622.151 266.544 621.209C266.235 620.062 266.838 618.859 267.892 618.523L281.036 614.324C282.089 613.992 283.194 614.647 283.505 615.791C283.813 616.938 283.21 618.141 282.156 618.477L269.012 622.677C268.825 622.734 268.636 622.763 268.452 622.763Z" fill="#9F36AD"/>
<path d="M266.084 611.189C265.224 611.189 264.431 610.577 264.177 609.635C263.868 608.488 264.471 607.285 265.525 606.949L278.038 602.951C279.092 602.618 280.196 603.273 280.506 604.418C280.815 605.565 280.212 606.768 279.158 607.104L266.645 611.102C266.458 611.161 266.27 611.189 266.084 611.189Z" fill="#9F36AD"/>
<path d="M271.667 634.957C270.84 634.957 270.069 634.391 269.786 633.492C269.431 632.361 269.985 631.131 271.024 630.745L283.658 626.044C284.7 625.653 285.828 626.26 286.183 627.391C286.539 628.522 285.985 629.753 284.945 630.138L272.312 634.84C272.098 634.92 271.879 634.957 271.667 634.957Z" fill="#9F36AD"/>
<path d="M322.111 680.458C321.661 680.458 321.222 680.209 320.974 679.759C320.746 679.346 320.445 678.815 320.079 678.167C295.559 634.892 289.39 597.239 288.531 573.275C286.578 518.789 301.286 480.017 310.285 465.698C310.697 465.041 311.524 464.872 312.127 465.322C312.732 465.772 312.887 466.669 312.473 467.327C303.66 481.354 289.255 519.429 291.181 573.163C292.028 596.782 298.12 633.911 322.337 676.652C322.709 677.312 323.017 677.853 323.249 678.273C323.625 678.956 323.422 679.842 322.794 680.252C322.579 680.392 322.343 680.458 322.111 680.458Z" fill="#FFA2BA"/>
<path d="M345.556 742.432C348.345 752.091 340.999 761.969 340.502 770.564C339.94 780.282 350.505 793.605 356.077 793.286C361.324 792.986 364.031 786.253 363.865 781.565C363.699 776.876 361.711 765.695 365.522 764.794C369.333 763.892 368.215 772.202 369.996 775.073C371.487 777.478 375.242 777.356 376.292 773.991C377.363 770.554 377.783 760.887 375.132 754.875C371.893 747.528 365.853 739.547 361.545 728.907C358.872 722.304 355.242 705.187 353.546 686.226C333.65 686.633 320.066 696.528 314.386 702.346C336.056 725.84 342.84 733.03 345.556 742.432Z" fill="url(#paint34_linear_14_56)"/>
<path d="M349.45 404.848C351.346 408.094 362.208 421.259 368.339 424.865C366.516 430.997 359.06 440.735 347.296 446.686C337.667 451.556 325.672 453.538 325.672 453.538C325.672 453.538 321.114 441.456 318.298 427.119C316.385 417.382 315.647 408.273 315.647 408.273C315.647 408.273 323.352 412.872 333.044 412.601C342.594 412.336 349.45 404.848 349.45 404.848Z" fill="url(#paint35_linear_14_56)"/>
<path d="M350.719 383.869C346.853 367.037 335.034 349.966 331.83 345.397H322.661L290.295 367.037L289.301 385.551C289.301 385.551 293.751 391.717 300.876 399.909C298.096 401.148 296.15 404.022 296.15 407.37C296.15 411.852 299.637 415.485 303.938 415.485C307.086 415.485 309.79 413.536 311.018 410.736C322.683 421.231 338.185 421.086 345.527 415.605C353.238 409.854 354.586 400.701 350.719 383.869Z" fill="url(#paint36_linear_14_56)"/>
<path d="M321.447 385.553C322.911 385.553 324.098 384.261 324.098 382.667C324.098 381.074 322.911 379.782 321.447 379.782C319.983 379.782 318.796 381.074 318.796 382.667C318.796 384.261 319.983 385.553 321.447 385.553Z" fill="#212F66"/>
<path d="M340.115 371.487C341.457 371.487 342.545 370.303 342.545 368.842C342.545 367.382 341.457 366.198 340.115 366.198C338.773 366.198 337.685 367.382 337.685 368.842C337.685 370.303 338.773 371.487 340.115 371.487Z" fill="#212F66"/>
<path d="M330.786 369.732C332.673 367.423 346.377 379.631 346.023 382.201C345.669 384.772 342.159 386.545 339.756 386.995C337.135 381.855 329.841 370.889 330.786 369.732Z" fill="url(#paint37_linear_14_56)"/>
<path d="M340.295 401.183C338.748 401.183 337.288 400.63 336.073 399.585C335.786 399.339 335.738 398.884 335.965 398.573C336.191 398.26 336.609 398.208 336.895 398.454C337.874 399.296 339.049 399.741 340.294 399.741C343.332 399.741 345.803 397.032 345.803 393.699C345.803 393.29 345.766 392.879 345.692 392.48C345.619 392.089 345.851 391.709 346.209 391.631C346.569 391.548 346.918 391.804 346.989 392.193C347.082 392.687 347.129 393.193 347.129 393.699C347.13 397.825 344.065 401.183 340.295 401.183Z" fill="#954374"/>
<path d="M339.121 325.682C335.697 322.195 330.615 326.284 327.522 330.01C324.43 333.736 321.989 338.077 319.128 337.825C315.041 337.464 316.453 326.838 311.396 327.485C303.884 328.448 300.128 347.442 297.699 348.884C295.269 350.327 293.231 344.352 289.414 346.961C284.664 350.207 286.132 365.578 285.547 369.323C285.154 371.843 278.345 376.434 279.029 385.553C279.854 396.539 289.798 404.697 296.153 407.406C296.153 407.395 296.152 407.383 296.152 407.373C296.152 403.528 298.721 400.314 302.166 399.477C302.137 395.543 301.447 391.038 300.57 387.718C298.471 379.783 293.668 373.622 293.668 373.622C296.76 373.261 315.925 367.04 329.291 354.297C340.71 343.408 342.726 329.352 339.121 325.682Z" fill="url(#paint38_linear_14_56)"/>
<path d="M316.65 314.726C294.039 314.726 274.243 327.837 263.324 347.455C273.613 337.316 287.26 331.137 302.235 331.137C334.264 331.137 360.228 359.394 360.228 394.253C360.228 417.062 349.109 437.042 332.452 448.131C359.207 440.518 378.951 414.037 378.951 382.532C378.951 345.084 351.057 314.726 316.65 314.726Z" fill="url(#paint39_radial_14_56)"/>
<path d="M332.587 440.515C312.619 440.515 291.027 432.767 280.135 416.45C260.473 386.995 272.9 332.715 294.302 319.239C270.94 329.018 254.35 353.658 254.35 382.532C254.35 419.981 282.243 450.337 316.651 450.337C331.091 450.337 344.373 444.976 354.937 436.003C347.997 438.907 340.466 440.515 332.587 440.515Z" fill="url(#paint40_linear_14_56)"/>
<path d="M270.441 407.299C266.577 407.299 262.988 408.562 259.986 410.714C265.336 423.434 274.187 434.036 285.207 441.062C287.868 437.499 289.469 432.959 289.469 428.009C289.471 416.57 280.951 407.299 270.441 407.299Z" fill="url(#paint41_linear_14_56)"/>
<g opacity="0.5">
<path d="M347.463 338.236L348.793 339.164L350.169 340.203C351.059 340.902 351.932 341.629 352.791 342.385C353.816 343.287 353.975 344.923 353.145 346.04C352.317 347.155 350.814 347.328 349.789 346.425C349.674 346.324 349.558 346.198 349.464 346.08C348.817 345.246 348.147 344.428 347.455 343.627L346.417 342.47L345.27 341.287C344.553 340.549 344.524 339.317 345.202 338.538C345.802 337.848 346.755 337.743 347.463 338.236Z" fill="white"/>
</g>
<g opacity="0.5">
<path d="M359.561 350.718C360.88 352.886 362.099 355.226 363.139 357.605C364.183 359.993 365.071 362.46 365.795 364.98C367.244 370.021 368.023 375.277 368.124 380.531C368.15 381.877 367.168 382.991 365.931 383.019C364.719 383.047 363.71 382.012 363.648 380.702C363.424 375.904 362.583 371.156 361.148 366.641C360.43 364.383 359.569 362.183 358.568 360.061C357.562 357.93 356.443 355.917 355.157 353.932C354.313 352.63 354.599 350.829 355.795 349.91C356.991 348.991 358.646 349.303 359.491 350.604C359.504 350.624 359.516 350.643 359.528 350.663L359.561 350.718Z" fill="white"/>
</g>
<path d="M397.496 405.382C386.558 407.096 378.363 409.117 373.392 410.522C363.599 434 341.883 450.338 316.649 450.338C314.382 450.338 312.146 450.199 309.94 449.942C304.544 456.357 298.706 465.316 295.474 470.467C302.237 472.39 309.332 473.421 316.647 473.421C355.519 473.42 388.184 444.517 397.496 405.382Z" fill="url(#paint42_linear_14_56)"/>
<path d="M294.296 319.222C301.076 316.207 308.392 314.614 315.742 314.386C323.095 314.194 330.494 315.419 337.474 318.026C351.471 323.202 363.56 334.106 371.04 347.996C378.526 361.887 381.21 378.762 378.492 394.543C377.144 402.441 374.499 410.058 370.726 416.934C366.912 423.779 362.02 429.903 356.281 434.854C367.417 424.509 375.1 409.957 377.489 394.35C378.683 386.554 378.689 378.547 377.407 370.787C376.129 363.021 373.573 355.515 369.898 348.724C366.268 341.903 361.504 335.802 355.937 330.753C350.362 325.707 343.963 321.758 337.138 319.07C323.474 313.698 308.05 313.76 294.296 319.222Z" fill="white"/>
<path d="M460.881 362.555C461.053 363.295 460.642 364.047 459.962 364.236L437.946 370.875C437.266 371.063 436.576 370.615 436.402 369.875L422.616 317.229C422.444 316.491 422.855 315.738 423.534 315.549L446.875 307.467C447.554 307.279 448.246 307.727 448.418 308.465L460.881 362.555Z" fill="url(#paint43_linear_14_56)"/>
<path d="M455.709 358.755L438.211 364.145L426.087 318.29L444.814 311.485L455.709 358.755Z" fill="url(#paint44_linear_14_56)"/>
<path d="M488.524 254.623C489.131 256.92 487.912 259.318 485.802 259.979L396.667 289.33C394.557 289.99 392.354 288.663 391.747 286.366L383.872 255.114C383.265 252.817 384.484 250.419 386.596 249.759L475.729 221.129C477.839 220.468 480.042 221.795 480.649 224.094L488.524 254.623Z" fill="#C7A0F6"/>
<path d="M476.83 223.844C477.416 223.844 477.94 224.274 478.099 224.873L485.978 255.421C486.179 256.186 485.772 256.987 485.035 257.217L395.937 286.557C395.815 286.594 395.692 286.615 395.568 286.615C394.982 286.615 394.46 286.185 394.305 285.603L386.422 254.316C386.289 253.816 386.437 253.415 386.536 253.218C386.635 253.024 386.87 252.674 387.347 252.524L476.463 223.9C476.584 223.864 476.707 223.846 476.83 223.844ZM476.83 220.959C476.467 220.959 476.097 221.014 475.73 221.129L386.597 249.759C384.487 250.42 383.267 252.817 383.873 255.114L391.748 286.366C392.249 288.264 393.84 289.5 395.567 289.5C395.93 289.5 396.301 289.445 396.669 289.33L485.803 259.979C487.913 259.318 489.133 256.92 488.526 254.623L480.652 224.092C480.149 222.195 478.557 220.959 476.83 220.959Z" fill="#FDE1A7"/>
<path d="M438.096 333.977C440.781 333.977 442.957 331.609 442.957 328.687C442.957 325.765 440.781 323.397 438.096 323.397C435.412 323.397 433.235 325.765 433.235 328.687C433.235 331.609 435.412 333.977 438.096 333.977Z" fill="#FE697A"/>
<path d="M438.097 329.769C438.07 329.769 438.042 329.768 438.013 329.766C437.465 329.716 437.06 329.192 437.105 328.596L441.316 274.209C441.362 273.613 441.847 273.185 442.391 273.221C442.938 273.271 443.344 273.795 443.299 274.391L439.088 328.778C439.043 329.343 438.609 329.769 438.097 329.769Z" fill="#FDE1A7"/>
<path d="M452.758 237.345L442.504 251.539L458.657 258.19L452.758 237.345Z" fill="white"/>
<path d="M450.401 237.105L417.13 248.258L437.097 255.524L450.401 237.105Z" fill="white"/>
<path d="M421.279 270.695L430.874 255.542L415.397 249.912L421.279 270.695Z" fill="white"/>
<path d="M441.216 253.322L438.227 257.46C438.035 257.727 437.745 257.874 437.445 257.874C437.339 257.874 437.233 257.855 437.13 257.818L432.838 256.255L423.376 271.195L457.139 259.876L441.216 253.322Z" fill="white"/>
<path d="M488.449 598.764C488.744 603.036 486.7 604.839 484.142 605.753L416.645 630.435C413.683 631.069 410.808 628.972 410.225 625.749L401.988 580.249C401.403 577.026 403.245 573.821 406.209 572.795C406.209 572.795 426.745 566.157 440.25 563.181C453.418 560.278 477.684 554.603 477.684 554.603C480.645 553.969 482.834 555.848 483.58 559.574L488.449 598.764Z" fill="url(#paint45_linear_14_56)"/>
<path d="M450.468 598.826C450.356 598.826 450.245 598.806 450.136 598.764L401.549 580.059C401.031 579.86 400.761 579.242 400.943 578.678C401.126 578.115 401.695 577.818 402.212 578.019L450.145 596.472L481.342 555.444C481.691 554.987 482.321 554.922 482.742 555.3C483.165 555.682 483.225 556.363 482.875 556.824L451.235 598.435C451.041 598.686 450.759 598.826 450.468 598.826Z" fill="#C44B5F"/>
<path d="M412.854 630.826C412.652 630.826 412.449 630.76 412.273 630.621C411.828 630.272 411.727 629.596 412.048 629.111L432.429 598.314C432.75 597.831 433.372 597.72 433.817 598.069C434.263 598.418 434.363 599.095 434.043 599.579L413.661 630.376C413.466 630.669 413.162 630.826 412.854 630.826Z" fill="#C44B5F"/>
<path d="M487.542 604.327C487.409 604.327 487.276 604.298 487.147 604.238L462.223 592.486C461.719 592.248 461.487 591.611 461.706 591.063C461.924 590.514 462.508 590.26 463.013 590.499L487.937 602.251C488.441 602.489 488.673 603.125 488.454 603.674C488.292 604.083 487.926 604.327 487.542 604.327Z" fill="#C44B5F"/>
<path d="M690.302 309.41C690.758 312.849 689.195 314.429 687.172 315.322L633.813 335C631.448 335.691 629.017 334.166 628.381 331.594L619.419 295.276C618.784 292.704 620.112 290 622.457 288.993C622.457 288.993 638.736 282.396 649.51 279.18C660.017 276.046 676.711 271.443 676.711 271.443C679.075 270.752 680.939 272.143 681.732 275.114L690.302 309.41Z" fill="url(#paint46_linear_14_56)"/>
<path d="M659.525 307.25C659.465 307.25 659.406 307.242 659.346 307.223L619.093 294.996C618.74 294.89 618.535 294.491 618.633 294.108C618.73 293.724 619.091 293.495 619.449 293.607L659.24 305.692L679.816 272.015C680.018 271.681 680.429 271.593 680.735 271.813C681.039 272.033 681.122 272.481 680.919 272.812L660.075 306.926C659.952 307.134 659.742 307.25 659.525 307.25Z" fill="#D66976"/>
<path d="M630.711 335.388C630.591 335.388 630.47 335.354 630.361 335.28C630.05 335.069 629.954 334.624 630.148 334.286L645.082 308.152C645.275 307.815 645.686 307.714 645.994 307.92C646.305 308.13 646.401 308.576 646.207 308.914L631.273 335.048C631.149 335.267 630.933 335.388 630.711 335.388Z" fill="#D66976"/>
<path d="M689.795 313.809C689.688 313.809 689.578 313.78 689.478 313.721L668.722 301.377C668.399 301.185 668.281 300.747 668.458 300.398C668.633 300.049 669.038 299.92 669.357 300.111L690.113 312.454C690.436 312.646 690.553 313.085 690.377 313.434C690.255 313.673 690.03 313.809 689.795 313.809Z" fill="#D66976"/>
<path d="M640.486 471.461C641.731 474.518 640.661 476.428 639.003 477.828L597.295 513.788C595.27 515.098 592.651 514.377 591.447 512.173L571.784 483.226C570.577 481.021 571.161 478.14 573.093 476.54C573.093 476.54 586.597 465.802 595.812 459.762C604.797 453.872 617.961 444.22 617.961 444.22C619.985 442.909 622.046 443.668 623.492 446.195L640.486 471.461Z" fill="url(#paint47_linear_14_56)"/>
<path d="M571.413 483.087C571.048 483.087 570.75 482.765 570.75 482.367C570.75 481.969 571.045 481.646 571.411 481.644L611.147 481.545L620.945 443.887C621.044 443.505 621.417 443.278 621.762 443.389C622.116 443.497 622.321 443.897 622.221 444.279L612.287 482.461C612.205 482.771 611.947 482.985 611.651 482.986L571.413 483.087C571.414 483.087 571.413 483.087 571.413 483.087Z" fill="#D66976"/>
<path d="M594.342 515.081C594.298 515.081 594.255 515.077 594.209 515.066C593.85 514.987 593.62 514.606 593.692 514.217L598.614 487.921C598.688 487.53 599.042 487.279 599.396 487.359C599.756 487.438 599.986 487.819 599.915 488.208L594.992 514.504C594.927 514.846 594.651 515.081 594.342 515.081Z" fill="#D66976"/>
<path d="M640.898 475.735C640.89 475.735 640.882 475.735 640.876 475.735L619.053 474.923C618.688 474.91 618.402 474.575 618.414 474.177C618.427 473.779 618.791 473.447 619.099 473.482L640.922 474.294C641.287 474.307 641.573 474.642 641.561 475.04C641.548 475.428 641.255 475.735 640.898 475.735Z" fill="#D66976"/>
<path d="M215.37 611.176C217.986 613.886 217.614 616.485 216.393 618.82L190.614 675.438C188.957 677.854 185.812 678.353 183.592 676.549L152.905 651.862C150.682 650.058 150.123 646.642 151.56 643.957C151.56 643.957 159.133 628.56 166.642 617.482C173.963 606.682 184.268 589.742 184.268 589.742C185.925 587.327 188.478 587.138 191.093 589.176L215.37 611.176Z" fill="url(#paint48_linear_14_56)"/>
<path d="M152.145 652.191C151.744 652.191 151.367 651.924 151.215 651.494C151.021 650.934 151.279 650.311 151.792 650.097L192.078 633.448L187.159 587.947C187.094 587.354 187.485 586.816 188.03 586.746C188.57 586.681 189.069 587.099 189.134 587.693L194.145 634.032C194.199 634.525 193.937 634.994 193.51 635.17L152.499 652.12C152.382 652.169 152.263 652.191 152.145 652.191Z" fill="#D66976"/>
<path d="M187.64 678.227C187.33 678.227 187.052 677.987 186.991 677.644L181.455 646.667C181.385 646.276 181.62 645.896 181.979 645.82C182.335 645.748 182.685 646 182.756 646.391L188.291 677.368C188.361 677.759 188.127 678.139 187.768 678.215C187.725 678.222 187.683 678.227 187.64 678.227Z" fill="#D66976"/>
<path d="M197.891 622.482C197.612 622.482 197.353 622.289 197.261 621.986C197.147 621.606 197.337 621.199 197.684 621.075L217.081 614.146C217.431 614.018 217.803 614.228 217.917 614.605C218.031 614.984 217.842 615.391 217.494 615.515L198.098 622.444C198.029 622.472 197.958 622.482 197.891 622.482Z" fill="#D66976"/>
<path d="M166.689 692.841C169.251 692.841 171.328 690.58 171.328 687.791C171.328 685.003 169.251 682.742 166.689 682.742C164.126 682.742 162.049 685.003 162.049 687.791C162.049 690.58 164.126 692.841 166.689 692.841Z" fill="#FE697A"/>
<path d="M387.521 605.383C390.083 605.383 392.16 603.123 392.16 600.334C392.16 597.545 390.083 595.285 387.521 595.285C384.959 595.285 382.881 597.545 382.881 600.334C382.881 603.123 384.959 605.383 387.521 605.383Z" fill="#FE697A"/>
<path d="M566.166 505.684C568.728 505.684 570.805 503.423 570.805 500.634C570.805 497.846 568.728 495.585 566.166 495.585C563.604 495.585 561.527 497.846 561.527 500.634C561.527 503.423 563.604 505.684 566.166 505.684Z" fill="#FE697A"/>
<path d="M663.987 344.435C666.549 344.435 668.626 342.175 668.626 339.386C668.626 336.597 666.549 334.337 663.987 334.337C661.424 334.337 659.347 336.597 659.347 339.386C659.347 342.175 661.424 344.435 663.987 344.435Z" fill="#FE697A"/>
<path d="M647.092 268.336C646.375 268.336 645.785 267.713 645.767 266.928C645.648 261.59 644.406 257.78 641.971 255.278C636.875 250.047 626.625 250.422 613.658 250.9L610.239 251.024C605.194 251.186 601.992 250.197 600.109 247.892C597.548 244.756 598.198 240.041 598.885 235.049C599.506 230.547 600.147 225.89 598.597 222.028C594.015 210.598 566.984 210.926 544.57 217.789C521.342 224.899 503.345 232.624 503.166 232.701C502.486 232.992 501.715 232.631 501.446 231.89C501.175 231.15 501.509 230.312 502.191 230.017C502.371 229.939 520.486 222.163 543.853 215.011C562.733 209.231 594.949 205.713 601.029 220.872C602.883 225.496 602.153 230.798 601.508 235.476C600.889 239.969 600.355 243.848 602.091 245.975C603.393 247.57 606.035 248.276 610.156 248.14L613.566 248.019C627.152 247.518 637.888 247.124 643.788 253.182C646.765 256.239 648.279 260.713 648.417 266.859C648.434 267.655 647.855 268.317 647.123 268.336C647.114 268.336 647.103 268.336 647.092 268.336Z" fill="#FDE1A7"/>
<path d="M654.607 256.293C654.069 256.293 653.626 255.825 653.613 255.237C653.394 245.442 649.701 240.814 640.865 239.26C640.323 239.165 639.953 238.61 640.042 238.02C640.129 237.43 640.652 237.03 641.18 237.124C650.913 238.835 655.36 244.404 655.601 255.183C655.614 255.78 655.181 256.277 654.632 256.291C654.623 256.293 654.615 256.293 654.607 256.293Z" fill="#FDE1A7"/>
<path d="M509.815 217.418C509.502 217.418 509.194 217.258 509 216.957C508.685 216.468 508.795 215.793 509.244 215.451C512.115 213.262 527.46 204.583 544.65 205.338C545.198 205.362 545.625 205.866 545.604 206.461C545.583 207.059 545.111 207.536 544.571 207.5C527.909 206.767 513.146 215.119 510.385 217.224C510.212 217.355 510.013 217.418 509.815 217.418Z" fill="#FDE1A7"/>
<path d="M544.444 243.206C544.32 243.206 544.192 243.18 544.068 243.125C540.631 241.595 530.9 241.761 527.762 241.942C527.181 241.958 526.745 241.514 526.716 240.92C526.688 240.322 527.108 239.813 527.656 239.781C527.783 239.775 540.32 239.121 544.821 241.123C545.328 241.349 545.572 241.981 545.364 242.535C545.208 242.952 544.836 243.206 544.444 243.206Z" fill="#FDE1A7"/>
<path d="M636.158 442.899C636.104 442.899 636.048 442.896 635.992 442.887C635.266 442.789 634.75 442.068 634.842 441.277C635.813 432.809 643.991 428.893 651.898 425.106C660.819 420.834 669.245 416.799 669.406 407.047C669.52 400.186 664.27 396.667 658.194 392.593C652.2 388.574 645.404 384.019 644.451 375.264C643.321 364.891 650.328 356.243 655.956 349.296C659.036 345.496 661.945 341.905 662.714 338.988C662.916 338.223 663.65 337.78 664.353 337.998C665.056 338.217 665.463 339.017 665.262 339.783C664.329 343.326 661.37 346.976 657.945 351.204C652.391 358.06 646.094 365.83 647.085 374.923C647.887 382.292 653.569 386.102 659.586 390.135C665.787 394.292 672.199 398.59 672.058 407.097C671.866 418.695 661.825 423.503 652.967 427.746C645.404 431.367 638.259 434.789 637.474 441.633C637.388 442.365 636.817 442.899 636.158 442.899Z" fill="#FDE1A7"/>
<path d="M628.977 389.34C628.663 389.34 628.353 389.178 628.161 388.877C620.901 377.54 624.575 366.799 627.531 362.704C627.872 362.233 628.496 362.151 628.927 362.522C629.359 362.891 629.435 363.572 629.095 364.041C629.019 364.146 621.552 374.772 629.791 387.64C630.105 388.131 629.994 388.804 629.543 389.146C629.371 389.278 629.172 389.34 628.977 389.34Z" fill="#FDE1A7"/>
<path d="M498.079 580.493C497.64 580.493 497.211 580.256 496.957 579.822C496.566 579.15 496.749 578.258 497.367 577.831C501.199 575.187 507.936 574.471 515.737 573.642C522.298 572.945 529.734 572.154 535.744 570.003C545.556 566.492 556.342 558.916 557.185 548.183C557.737 541.176 554.712 537.828 551.511 534.284C548.81 531.297 546.019 528.208 545.797 523.034C545.224 509.609 564.781 499.735 565.615 499.321C566.277 498.991 567.066 499.31 567.371 500.035C567.674 500.76 567.382 501.615 566.715 501.947C560.225 505.171 548.052 513.7 548.446 522.9C548.62 526.971 550.835 529.423 553.4 532.262C556.719 535.935 560.481 540.098 559.827 548.428C558.873 560.564 547.189 568.947 536.573 572.744C530.284 574.995 522.693 575.801 515.995 576.513C508.842 577.273 502.085 577.991 498.788 580.269C498.568 580.421 498.321 580.493 498.079 580.493Z" fill="#FDE1A7"/>
<path d="M536.189 521.344C536.138 521.344 536.089 521.341 536.039 521.335C535.311 521.246 534.789 520.531 534.87 519.741C536.562 503.346 547.393 496.759 551.424 495.605C552.132 495.4 552.859 495.863 553.044 496.634C553.23 497.404 552.807 498.193 552.099 498.397C548.796 499.343 539.023 505.355 537.504 520.065C537.429 520.8 536.854 521.344 536.189 521.344Z" fill="#FDE1A7"/>
<path d="M385.925 601.971C382.171 601.971 372.763 600.1 352.27 587.336C349.579 585.659 346.849 583.931 344.077 582.177C316.711 564.856 285.697 545.236 250.091 548.568C223.718 551.047 211.197 567.955 207.082 573.512C206.679 574.054 206.361 574.486 206.12 574.779C205.633 575.374 204.796 575.429 204.248 574.898C203.701 574.37 203.652 573.457 204.138 572.863C204.358 572.593 204.65 572.199 205.018 571.701C209.308 565.906 222.365 548.278 249.865 545.694C286.297 542.255 317.704 562.147 345.412 579.684C348.177 581.434 350.902 583.159 353.588 584.831C379.712 601.101 387.024 598.989 387.094 598.969C387.775 598.743 388.522 599.141 388.752 599.877C388.983 600.611 388.661 601.404 387.995 601.681C387.801 601.762 387.178 601.971 385.925 601.971Z" fill="#FDE1A7"/>
<path d="M200.269 553.984C200.05 553.984 199.831 553.906 199.649 553.747C199.22 553.374 199.151 552.693 199.493 552.225C203.122 547.289 213.637 535.987 232.939 537.757C233.486 537.807 233.892 538.33 233.847 538.925C233.8 539.521 233.31 539.961 232.773 539.914C214.439 538.242 204.476 548.912 201.046 553.577C200.85 553.844 200.561 553.984 200.269 553.984Z" fill="#FDE1A7"/>
<path d="M163.373 747.662C162.683 747.662 162.101 747.081 162.052 746.319C160.343 719.55 163.206 695.976 165.412 687.402C165.61 686.634 166.343 686.186 167.045 686.402C167.75 686.616 168.161 687.413 167.964 688.179C165.807 696.566 163.012 719.712 164.696 746.118C164.747 746.913 164.197 747.601 163.466 747.658C163.436 747.661 163.404 747.662 163.373 747.662Z" fill="#FDE1A7"/>
<path d="M224.888 841.17C224.717 841.17 224.542 841.134 224.374 841.057C223.939 840.857 213.718 836.082 212.569 828.072C211.814 822.819 213.941 819.459 215.997 816.21C217.217 814.282 218.481 812.288 219.224 809.805C222.061 800.343 216.009 795.145 213.437 793.941C212.765 793.625 212.455 792.777 212.744 792.046C213.031 791.314 213.812 790.98 214.485 791.291C217.675 792.786 225.197 799.186 221.746 810.702C220.883 813.582 219.447 815.848 218.181 817.849C216.178 821.012 214.597 823.512 215.188 827.628C216.111 834.046 225.314 838.357 225.405 838.4C226.079 838.71 226.396 839.557 226.111 840.29C225.896 840.84 225.404 841.17 224.888 841.17Z" fill="#FDE1A7"/>
<path d="M231.138 820.347C230.9 820.347 230.661 820.254 230.472 820.067C230.065 819.667 230.033 818.982 230.401 818.539C233.69 814.582 233.949 810.246 233.585 807.308C233.042 802.906 230.953 799.644 229.643 798.735C229.181 798.414 229.044 797.744 229.34 797.242C229.635 796.737 230.25 796.59 230.713 796.912C232.619 798.235 234.965 802.228 235.557 807.019C235.975 810.414 235.677 815.418 231.877 819.99C231.679 820.227 231.409 820.347 231.138 820.347Z" fill="#FDE1A7"/>
<path d="M491.223 235.886L499.491 221.119L506.036 242.139L491.223 235.886Z" fill="#FE697A"/>
<path d="M189.325 761.028L144.273 752.101C139.879 751.621 136.956 753.74 136.5 757.851C136.5 757.851 135.806 765.179 134.869 774.855C135.859 776.263 136.853 777.662 137.859 779.038C154.879 802.309 174.476 822.414 195.96 839.022L195.342 769.367C195.333 765.676 194.145 762.308 189.325 761.028Z" fill="url(#paint49_linear_14_56)"/>
<path d="M171.249 793.327C170.937 793.327 170.624 793.208 170.372 792.966C169.824 792.438 169.771 791.526 170.256 790.929L192.912 763C193.396 762.405 194.234 762.347 194.782 762.873C195.331 763.401 195.384 764.313 194.899 764.91L172.243 792.839C171.982 793.162 171.616 793.327 171.249 793.327Z" fill="#D66976"/>
<path d="M174.516 809.397L141.031 751.905C140.639 751.231 139.821 751.032 139.202 751.458C138.583 751.883 138.4 752.776 138.791 753.449L171.78 810.089L168.462 814.797C169.116 815.45 169.763 816.112 170.421 816.757L174.448 811.046C174.786 810.567 174.813 809.907 174.516 809.397Z" fill="#D66976"/>
</g>
<defs>
<linearGradient id="paint0_linear_14_56" x1="0" y1="0" x2="1170.5" y2="1082" gradientUnits="userSpaceOnUse">
<stop stop-color="#706AEC"/>
<stop offset="1" stop-color="#44359F"/>
</linearGradient>
<linearGradient id="paint1_linear_14_56" x1="869.896" y1="414.877" x2="930.764" y2="414.877" gradientUnits="userSpaceOnUse">
<stop stop-color="#FFE2A8"/>
<stop offset="1" stop-color="#728390"/>
</linearGradient>
<linearGradient id="paint2_linear_14_56" x1="807.914" y1="386.413" x2="837.273" y2="386.413" gradientUnits="userSpaceOnUse">
<stop stop-color="#A281FF"/>
<stop offset="1" stop-color="#FF57BD"/>
</linearGradient>
<linearGradient id="paint3_linear_14_56" x1="816.344" y1="515.197" x2="862.898" y2="515.197" gradientUnits="userSpaceOnUse">
<stop stop-color="#FF57BD"/>
<stop offset="1" stop-color="#FE6A77"/>
</linearGradient>
<linearGradient id="paint4_linear_14_56" x1="846.768" y1="539.973" x2="875.073" y2="539.973" gradientUnits="userSpaceOnUse">
<stop stop-color="#C5188E"/>
<stop offset="1" stop-color="#9F36AD"/>
</linearGradient>
<linearGradient id="paint5_linear_14_56" x1="730.508" y1="438.094" x2="756.528" y2="438.094" gradientUnits="userSpaceOnUse">
<stop stop-color="#FF57BD"/>
<stop offset="1" stop-color="#FE6A77"/>
</linearGradient>
<linearGradient id="paint6_linear_14_56" x1="698.463" y1="437.992" x2="732.266" y2="437.992" gradientUnits="userSpaceOnUse">
<stop stop-color="#C5188E"/>
<stop offset="1" stop-color="#9F36AD"/>
</linearGradient>
<linearGradient id="paint7_linear_14_56" x1="761.659" y1="478.123" x2="887.325" y2="436.097" gradientUnits="userSpaceOnUse">
<stop stop-color="#05C5DA"/>
<stop offset="1" stop-color="#5860C4"/>
</linearGradient>
<linearGradient id="paint8_linear_14_56" x1="857.095" y1="488.879" x2="909.099" y2="488.879" gradientUnits="userSpaceOnUse">
<stop stop-color="#00E2EC"/>
<stop offset="1" stop-color="#0090B2"/>
</linearGradient>
<linearGradient id="paint9_linear_14_56" x1="886.769" y1="532.164" x2="918.639" y2="532.164" gradientUnits="userSpaceOnUse">
<stop stop-color="#A281FF"/>
<stop offset="1" stop-color="#FF57BD"/>
</linearGradient>
<linearGradient id="paint10_linear_14_56" x1="784.572" y1="429.148" x2="815.5" y2="457.566" gradientUnits="userSpaceOnUse">
<stop stop-color="#00E2EC"/>
<stop offset="1" stop-color="#0090B2"/>
</linearGradient>
<linearGradient id="paint11_linear_14_56" x1="738.312" y1="468.915" x2="782.281" y2="468.915" gradientUnits="userSpaceOnUse">
<stop stop-color="#A281FF"/>
<stop offset="1" stop-color="#FF57BD"/>
</linearGradient>
<linearGradient id="paint12_linear_14_56" x1="721.443" y1="379.219" x2="746.293" y2="379.219" gradientUnits="userSpaceOnUse">
<stop stop-color="#9F36AD"/>
<stop offset="0.1071" stop-color="#8D3399"/>
<stop offset="0.4036" stop-color="#602A65"/>
<stop offset="0.662" stop-color="#3F243F"/>
<stop offset="0.8695" stop-color="#2A2028"/>
<stop offset="1" stop-color="#231F20"/>
</linearGradient>
<linearGradient id="paint13_linear_14_56" x1="747.6" y1="322.525" x2="764.575" y2="338.122" gradientUnits="userSpaceOnUse">
<stop stop-color="#FFE2A8"/>
<stop offset="1" stop-color="#728390"/>
</linearGradient>
<linearGradient id="paint14_linear_14_56" x1="726.479" y1="321.75" x2="804.89" y2="393.795" gradientUnits="userSpaceOnUse">
<stop stop-color="#FFE2A8"/>
<stop offset="1" stop-color="#728390"/>
</linearGradient>
<linearGradient id="paint15_linear_14_56" x1="702.729" y1="352.429" x2="716.687" y2="352.429" gradientUnits="userSpaceOnUse">
<stop stop-color="#653271"/>
<stop offset="0.1129" stop-color="#5B2F65"/>
<stop offset="0.496" stop-color="#3D263F"/>
<stop offset="0.8053" stop-color="#2A2128"/>
<stop offset="1" stop-color="#231F20"/>
</linearGradient>
<radialGradient id="paint16_radial_14_56" cx="0" cy="0" r="1" gradientUnits="userSpaceOnUse" gradientTransform="translate(753.673 352.687) scale(58.9953 64.2075)">
<stop stop-color="#4E40AF" stop-opacity="0"/>
<stop offset="0.1096" stop-color="#5446B2" stop-opacity="0.0438"/>
<stop offset="0.2617" stop-color="#6558B9" stop-opacity="0.1047"/>
<stop offset="0.4387" stop-color="#8076C6" stop-opacity="0.1755"/>
<stop offset="0.6345" stop-color="#A69FD7" stop-opacity="0.2538"/>
<stop offset="0.8432" stop-color="#D6D3ED" stop-opacity="0.3373"/>
<stop offset="1" stop-color="white" stop-opacity="0.4"/>
</radialGradient>
<linearGradient id="paint17_linear_14_56" x1="744.512" y1="408.107" x2="807.366" y2="408.107" gradientUnits="userSpaceOnUse">
<stop stop-color="#FF57BD"/>
<stop offset="1" stop-color="#FE6A77"/>
</linearGradient>
<linearGradient id="paint18_linear_14_56" x1="797.104" y1="357.09" x2="812.654" y2="357.09" gradientUnits="userSpaceOnUse">
<stop stop-color="#05C5DA"/>
<stop offset="1" stop-color="#0090B2"/>
</linearGradient>
<linearGradient id="paint19_linear_14_56" x1="252.923" y1="472.406" x2="286.251" y2="472.406" gradientUnits="userSpaceOnUse">
<stop stop-color="#05C5DA"/>
<stop offset="1" stop-color="#5860C4"/>
</linearGradient>
<linearGradient id="paint20_linear_14_56" x1="706.94" y1="735.578" x2="801.112" y2="735.578" gradientUnits="userSpaceOnUse">
<stop stop-color="#05C5DA"/>
<stop offset="1" stop-color="#5860C4"/>
</linearGradient>
<linearGradient id="paint21_linear_14_56" x1="584.79" y1="663.303" x2="747.779" y2="663.303" gradientUnits="userSpaceOnUse">
<stop stop-color="#FF57BD"/>
<stop offset="1" stop-color="#FE6A77"/>
</linearGradient>
<linearGradient id="paint22_linear_14_56" x1="474.889" y1="402.034" x2="474.889" y2="483.853" gradientUnits="userSpaceOnUse">
<stop stop-color="#FE6A77"/>
<stop offset="1" stop-color="#C91C91"/>
</linearGradient>
<linearGradient id="paint23_linear_14_56" x1="534.855" y1="448.027" x2="561.565" y2="448.027" gradientUnits="userSpaceOnUse">
<stop stop-color="#05C5DA"/>
<stop offset="1" stop-color="#5860C4"/>
</linearGradient>
<linearGradient id="paint24_linear_14_56" x1="477.861" y1="425.671" x2="561.99" y2="425.671" gradientUnits="userSpaceOnUse">
<stop stop-color="#FF57BD"/>
<stop offset="1" stop-color="#FE6A77"/>
</linearGradient>
<linearGradient id="paint25_linear_14_56" x1="534.864" y1="441.063" x2="561.99" y2="441.063" gradientUnits="userSpaceOnUse">
<stop stop-color="#05C5DA"/>
<stop offset="1" stop-color="#0090B2"/>
</linearGradient>
<linearGradient id="paint26_linear_14_56" x1="426.755" y1="370.977" x2="508.008" y2="370.977" gradientUnits="userSpaceOnUse">
<stop stop-color="#00E2EC"/>
<stop offset="1" stop-color="#0090B2"/>
</linearGradient>
<linearGradient id="paint27_linear_14_56" x1="362.347" y1="622.277" x2="535.266" y2="488.959" gradientUnits="userSpaceOnUse">
<stop stop-color="#FE6A77"/>
<stop offset="1" stop-color="#FF57BD"/>
</linearGradient>
<linearGradient id="paint28_linear_14_56" x1="410.931" y1="543.946" x2="507.497" y2="469.495" gradientUnits="userSpaceOnUse">
<stop stop-color="#C5188E"/>
<stop offset="1" stop-color="#FF57BD"/>
</linearGradient>
<linearGradient id="paint29_linear_14_56" x1="483.67" y1="634.204" x2="742.488" y2="634.204" gradientUnits="userSpaceOnUse">
<stop stop-color="#C91C91"/>
<stop offset="1" stop-color="#FE6A77"/>
</linearGradient>
<linearGradient id="paint30_linear_14_56" x1="587.884" y1="570.358" x2="661.303" y2="570.358" gradientUnits="userSpaceOnUse">
<stop stop-color="#00E2EC"/>
<stop offset="1" stop-color="#0090B2"/>
</linearGradient>
<linearGradient id="paint31_linear_14_56" x1="731.769" y1="605.934" x2="824.765" y2="605.934" gradientUnits="userSpaceOnUse">
<stop stop-color="#00E2EC"/>
<stop offset="1" stop-color="#0090B2"/>
</linearGradient>
<linearGradient id="paint32_linear_14_56" x1="263.469" y1="584.295" x2="366.278" y2="584.295" gradientUnits="userSpaceOnUse">
<stop stop-color="#FE6A77"/>
<stop offset="1" stop-color="#C91C91"/>
</linearGradient>
<linearGradient id="paint33_linear_14_56" x1="263.557" y1="620.714" x2="291.948" y2="620.714" gradientUnits="userSpaceOnUse">
<stop stop-color="#00E2EC"/>
<stop offset="1" stop-color="#0090B2"/>
</linearGradient>
<linearGradient id="paint34_linear_14_56" x1="314.386" y1="739.758" x2="377.122" y2="739.758" gradientUnits="userSpaceOnUse">
<stop stop-color="#00E2EC"/>
<stop offset="1" stop-color="#0090B2"/>
</linearGradient>
<linearGradient id="paint35_linear_14_56" x1="339.659" y1="403.668" x2="348.394" y2="449.188" gradientUnits="userSpaceOnUse">
<stop stop-color="#C16846"/>
<stop offset="0.2653" stop-color="#D27565"/>
<stop offset="0.5308" stop-color="#DE7F7B"/>
<stop offset="0.7814" stop-color="#E58589"/>
<stop offset="1" stop-color="#E8878E"/>
</linearGradient>
<linearGradient id="paint36_linear_14_56" x1="296.62" y1="410.837" x2="350.346" y2="369.414" gradientUnits="userSpaceOnUse">
<stop stop-color="#E8878E"/>
<stop offset="1" stop-color="#F4BEA3"/>
</linearGradient>
<linearGradient id="paint37_linear_14_56" x1="330.702" y1="378.22" x2="346.03" y2="378.22" gradientUnits="userSpaceOnUse">
<stop stop-color="#FF57BD"/>
<stop offset="1" stop-color="#FE6A77"/>
</linearGradient>
<linearGradient id="paint38_linear_14_56" x1="278.981" y1="365.882" x2="340.747" y2="365.882" gradientUnits="userSpaceOnUse">
<stop stop-color="#994574"/>
<stop offset="1" stop-color="#43256F"/>
</linearGradient>
<radialGradient id="paint39_radial_14_56" cx="0" cy="0" r="1" gradientUnits="userSpaceOnUse" gradientTransform="translate(316.498 382.15) scale(62.3283 67.8349)">
<stop stop-color="#635AD5" stop-opacity="0"/>
<stop offset="0.1205" stop-color="#6960D7" stop-opacity="0.0482"/>
<stop offset="0.2878" stop-color="#7A72DB" stop-opacity="0.1151"/>
<stop offset="0.4824" stop-color="#9690E3" stop-opacity="0.193"/>
<stop offset="0.6977" stop-color="#BDB9ED" stop-opacity="0.2791"/>
<stop offset="0.9273" stop-color="#EEEDFA" stop-opacity="0.3709"/>
<stop offset="1" stop-color="white" stop-opacity="0.4"/>
</radialGradient>
<linearGradient id="paint40_linear_14_56" x1="254.349" y1="384.788" x2="354.936" y2="384.788" gradientUnits="userSpaceOnUse">
<stop stop-color="#00E2EC"/>
<stop offset="1" stop-color="#0090B2"/>
</linearGradient>
<linearGradient id="paint41_linear_14_56" x1="270.35" y1="427.94" x2="285.954" y2="415.91" gradientUnits="userSpaceOnUse">
<stop stop-color="#A281FF"/>
<stop offset="0.0945" stop-color="#B17AF5"/>
<stop offset="0.3504" stop-color="#D36BDD"/>
<stop offset="0.5934" stop-color="#EB60CB"/>
<stop offset="0.8163" stop-color="#FA59C1"/>
<stop offset="1" stop-color="#FF57BD"/>
</linearGradient>
<linearGradient id="paint42_linear_14_56" x1="295.477" y1="439.4" x2="397.496" y2="439.4" gradientUnits="userSpaceOnUse">
<stop stop-color="#00E2EC"/>
<stop offset="1" stop-color="#0090B2"/>
</linearGradient>
<linearGradient id="paint43_linear_14_56" x1="422.578" y1="339.17" x2="460.921" y2="339.17" gradientUnits="userSpaceOnUse">
<stop stop-color="#653271"/>
<stop offset="0.1129" stop-color="#5B2F65"/>
<stop offset="0.496" stop-color="#3D263F"/>
<stop offset="0.8053" stop-color="#2A2128"/>
<stop offset="1" stop-color="#231F20"/>
</linearGradient>
<linearGradient id="paint44_linear_14_56" x1="424.831" y1="319.658" x2="461.053" y2="352.94" gradientUnits="userSpaceOnUse">
<stop stop-color="#84DBF1"/>
<stop offset="1" stop-color="#FFE2A8"/>
</linearGradient>
<linearGradient id="paint45_linear_14_56" x1="401.88" y1="592.515" x2="488.477" y2="592.515" gradientUnits="userSpaceOnUse">
<stop stop-color="#FDE1A7"/>
<stop offset="1" stop-color="#F9A144"/>
</linearGradient>
<linearGradient id="paint46_linear_14_56" x1="619.261" y1="303.216" x2="690.38" y2="303.216" gradientUnits="userSpaceOnUse">
<stop stop-color="#FDE1A7"/>
<stop offset="1" stop-color="#F9A144"/>
</linearGradient>
<linearGradient id="paint47_linear_14_56" x1="571.155" y1="479.015" x2="641.028" y2="479.015" gradientUnits="userSpaceOnUse">
<stop stop-color="#FDE1A7"/>
<stop offset="1" stop-color="#F9A144"/>
</linearGradient>
<linearGradient id="paint48_linear_14_56" x1="150.768" y1="632.705" x2="217.332" y2="632.705" gradientUnits="userSpaceOnUse">
<stop stop-color="#FDE1A7"/>
<stop offset="1" stop-color="#F9A144"/>
</linearGradient>
<linearGradient id="paint49_linear_14_56" x1="128.668" y1="795.529" x2="196.207" y2="795.529" gradientUnits="userSpaceOnUse">
<stop stop-color="#FDE1A7"/>
<stop offset="1" stop-color="#F9A144"/>
</linearGradient>
<clipPath id="clip0_14_56">
<rect width="1193" height="1082" fill="white"/>
</clipPath>
</defs>
</svg>
