<svg width="1000" height="770" viewBox="0 0 1000 770" fill="none" xmlns="http://www.w3.org/2000/svg">
<path d="M901.935 265.245C907.861 265.191 925.903 264.489 938.91 250.792C955.772 233.035 949.88 199.173 949.88 199.173C949.88 199.173 955.987 198.926 958.413 204.335C961.563 211.355 957.397 224.157 960.038 225.602C964.443 228.012 965.524 217.55 968.977 219.201C972.431 220.853 971.965 228.902 971.212 236.132C970.5 242.959 965.828 249.39 967.453 251.515C969.587 254.304 974.666 247.282 976.291 250.585C977.916 253.889 972.025 260.29 966.843 263.697C962.338 266.661 954.552 269.376 954.755 271.028C954.958 272.68 962.272 272.68 961.053 275.983C959.834 279.287 950.692 278.048 945.206 278.048C939.721 278.048 931.392 277.842 926.922 281.558C922.453 285.275 901.935 265.245 901.935 265.245Z" fill="url(#paint0_linear_19_56)"/>
<path d="M923.2 233.311C922.945 233.311 922.693 233.19 922.535 232.962C922.277 232.591 922.363 232.075 922.729 231.811C922.833 231.735 933.168 224.183 932.682 216.294C932.368 211.205 929.631 208.615 926.464 205.615C924.406 203.666 922.279 201.653 920.605 198.767C913.982 187.353 921.061 178.61 924.351 176.204C924.712 175.938 925.22 176.02 925.484 176.392C925.747 176.762 925.664 177.277 925.3 177.545C922.348 179.705 915.999 187.581 922.006 197.928C923.561 200.607 925.601 202.538 927.574 204.406C930.855 207.512 933.953 210.445 934.307 216.19C934.85 224.999 924.128 232.829 923.671 233.157C923.525 233.261 923.363 233.311 923.2 233.311Z" fill="#E8878E"/>
<path d="M910.739 212.112C910.575 212.112 910.411 212.062 910.268 211.96C904.732 207.961 903.193 202.568 902.878 198.749C902.432 193.357 904.206 188.402 906.101 186.476C906.418 186.154 906.933 186.154 907.25 186.476C907.567 186.798 907.567 187.322 907.25 187.644C905.59 189.33 904.106 193.894 904.497 198.61C904.784 202.082 906.182 206.981 911.21 210.613C911.576 210.878 911.661 211.393 911.401 211.765C911.245 211.991 910.993 212.112 910.739 212.112Z" fill="#E8878E"/>
<path d="M973.855 274.33C973.83 274.33 973.809 274.33 973.785 274.326C973.34 274.288 973.006 273.889 973.044 273.435C973.291 270.418 976.964 268.942 983.631 266.262C985.662 265.446 987.99 264.51 990.601 263.383C994.284 261.793 996.638 259.578 997.597 256.801C998.944 252.899 997.231 248.973 996.433 247.467C996.22 247.065 996.368 246.565 996.763 246.347C997.156 246.132 997.65 246.281 997.865 246.682C998.765 248.382 1000.69 252.825 999.131 257.348C998.013 260.582 995.359 263.124 991.237 264.903C988.612 266.038 986.272 266.978 984.227 267.799C978.366 270.154 974.827 271.576 974.662 273.572C974.628 274.004 974.272 274.33 973.855 274.33Z" fill="#E8878E"/>
<path d="M827.188 169.387L828.482 169.486C829.06 169.558 829.722 169.629 830.232 169.727C831.288 169.909 832.335 170.135 833.354 170.431C835.399 171.009 837.357 171.795 839.207 172.743C842.909 174.643 846.177 177.178 848.979 180.09C854.575 185.933 858.36 193.267 860.238 200.994C862.071 208.561 862.442 216.374 861.26 224.167C860.038 231.915 857.315 239.765 851.848 246.623L838.665 235.138C841.781 231.722 844.089 226.646 845.202 221.233C846.342 215.812 846.387 209.94 845.347 204.405C844.359 199.043 842.02 193.95 838.6 189.961C836.892 187.974 834.914 186.279 832.782 185.029C831.717 184.405 830.614 183.889 829.496 183.501C828.937 183.3 828.374 183.148 827.81 183.014L827.113 182.862C826.822 182.809 826.326 182.76 825.943 182.708L827.188 169.387Z" fill="url(#paint1_linear_19_56)"/>
<path d="M839.797 192.553C839.394 192.553 839.043 192.247 838.992 191.829C838.937 191.377 839.252 190.964 839.698 190.908C842.504 190.549 847.54 188.859 849.752 181.554C849.882 181.117 850.34 180.871 850.766 181.007C851.196 181.141 851.435 181.603 851.304 182.039C848.827 190.232 843.096 192.14 839.901 192.546C839.865 192.551 839.831 192.553 839.797 192.553Z" fill="#FFA2BA"/>
<path d="M851.287 210.429C849.134 210.429 847.13 210.074 845.704 209.646C845.274 209.517 845.028 209.058 845.155 208.62C845.28 208.182 845.729 207.93 846.164 208.062C849.709 209.122 857.246 209.756 860.371 204.558C860.603 204.168 861.101 204.044 861.489 204.284C861.871 204.522 861.993 205.031 861.759 205.42C859.43 209.299 855.123 210.429 851.287 210.429Z" fill="#FFA2BA"/>
<path d="M855.435 229.575C848.719 229.575 845.082 226.043 843.675 224.259C843.393 223.902 843.449 223.384 843.8 223.098C844.149 222.816 844.659 222.87 844.941 223.225C846.488 225.186 851.083 229.507 860.316 227.315C860.768 227.211 861.19 227.489 861.294 227.931C861.396 228.376 861.125 228.82 860.688 228.924C858.759 229.38 857.011 229.575 855.435 229.575Z" fill="#FFA2BA"/>
<path d="M893.356 365.743C892.579 364.217 891.893 362.613 891.371 360.912C888 349.894 889.203 339.302 889.203 339.302C889.203 339.302 874.711 334.622 863.199 332.144C851.687 329.667 836.276 326.328 836.276 326.328C836.653 336.963 843.291 358.71 857.376 372.337C863.37 378.139 868.799 381.961 873.579 384.589C879.593 384.582 889.34 376.842 893.356 365.743Z" fill="url(#paint2_linear_19_56)"/>
<path d="M905.727 401.794C910.162 400.692 907.759 386.239 906.405 382.936C905.256 380.131 897.719 374.336 893.355 365.744C889.339 376.842 879.593 384.582 873.579 384.587C883.732 390.167 890.944 390.329 894.35 392.433C897.477 394.366 900.973 402.975 905.727 401.794Z" fill="url(#paint3_linear_19_56)"/>
<path d="M754.984 250.516C748.614 254.279 744.382 256.375 733.721 256.71C733.147 256.729 732.558 256.735 731.96 256.737C733.621 262.323 733.854 271.844 731.032 278.934C740.737 283.015 750.838 284.647 760.534 283.456C766.099 277.198 761.046 257.606 754.984 250.516Z" fill="url(#paint4_linear_19_56)"/>
<path d="M731.96 256.737C723.445 256.737 712.714 255.044 708.257 255.196C701.215 255.437 697.05 258.223 694.002 261.425C691.397 264.16 690.718 269.614 693.697 271.542C697.427 273.953 706.767 270.475 711.913 269.786C717.058 269.097 721.123 274.741 730.875 278.871C730.925 278.892 730.977 278.909 731.031 278.932C733.854 271.844 733.621 262.323 731.96 256.737Z" fill="url(#paint5_linear_19_56)"/>
<path d="M892.387 288.164C905.828 272.449 925.365 277.345 929.118 281.116C928.904 280.875 928.701 280.622 928.481 280.386C912.503 263.184 889.883 258.499 867.127 246.8C847.64 236.78 827.039 222.849 821.079 216.311C821.079 216.311 810.786 230.971 786.451 241.636C769.93 248.876 748.348 246.456 748.348 246.456C748.348 246.456 750.268 264.874 757.693 278.873C768.867 299.933 806.858 321.819 839.972 332.556C863.124 340.062 878.79 342.171 895.231 343.912C891.575 337.098 878.727 304.137 892.387 288.164Z" fill="url(#paint6_linear_19_56)"/>
<path d="M891.524 290.095C891.49 290.095 891.457 290.093 891.423 290.088C836.783 283.286 807.441 241.05 803.927 233.016C803.745 232.599 803.93 232.11 804.34 231.925C804.751 231.744 805.231 231.927 805.413 232.345C808.865 240.239 837.736 281.742 891.62 288.45C892.065 288.504 892.384 288.917 892.329 289.37C892.278 289.788 891.929 290.095 891.524 290.095Z" fill="#00E2EC"/>
<path d="M950.002 351.959C945.773 339.095 946.346 300.622 929.116 281.117C925.363 277.344 905.826 272.449 892.385 288.165C878.725 304.138 891.573 337.1 895.229 343.913C904.014 357.992 913.757 367.11 922.622 373.338C929.431 372.06 945.926 362.138 950.002 351.959Z" fill="url(#paint7_linear_19_56)"/>
<path d="M956.178 397.801C963.024 397.501 962.036 380.246 960.851 372.818C959.632 365.179 953.134 360.276 950.287 352.79C950.188 352.531 950.097 352.242 950.002 351.959C945.926 362.138 929.431 372.06 922.623 373.338C932.003 379.929 940.395 383.285 945.614 385.828C948.237 387.103 949.88 398.077 956.178 397.801Z" fill="url(#paint8_linear_19_56)"/>
<path d="M940.334 364.51C940.127 364.51 939.921 364.431 939.762 364.27C906.231 330.559 909.312 299.249 910.473 287.462C910.517 287.008 910.921 286.686 911.362 286.722C911.807 286.767 912.135 287.171 912.088 287.625C910.951 299.198 907.924 329.939 940.904 363.096C941.223 363.416 941.226 363.94 940.911 364.264C940.753 364.429 940.543 364.51 940.334 364.51Z" fill="#00E2EC"/>
<path d="M842.004 250.586C836.452 244.842 824.126 240.881 812.952 245.63C797.972 251.996 784.707 271.905 775.256 283.048C780.64 284.279 788.009 287.791 791.214 293.841C793.439 298.04 794.244 302.511 794.51 305.841C810.604 302.814 828.927 295.526 839.363 285.273C853.173 271.705 847.692 256.471 842.004 250.586Z" fill="url(#paint9_linear_19_56)"/>
<path d="M775.256 283.048C773.128 285.556 771.194 287.624 769.476 288.99C759.255 297.12 749.614 302.862 745.504 307.16C741.947 310.876 738.596 316.657 742.05 319.961C746.766 324.474 753.529 320.478 761.147 313.767C767.241 308.398 770.43 308.686 786.629 307.014C789.16 306.753 791.809 306.35 794.512 305.843C794.245 302.513 793.441 298.042 791.216 293.843C788.007 287.791 780.64 284.279 775.256 283.048Z" fill="url(#paint10_linear_19_56)"/>
<path d="M791.214 294.668C790.878 294.668 790.564 294.455 790.445 294.113C790.299 293.682 790.523 293.212 790.947 293.063C812.708 285.387 837.823 257.703 841.267 250.235C841.459 249.822 841.945 249.644 842.348 249.839C842.754 250.032 842.93 250.524 842.74 250.937C839.112 258.8 814.036 286.667 791.481 294.622C791.391 294.654 791.303 294.668 791.214 294.668Z" fill="#00E2EC"/>
<path d="M719.917 203.696C723.359 203.612 738.799 199.07 741.44 194.425C744.082 189.78 750.379 194.114 750.379 194.114C750.379 194.114 751.091 206.813 737.478 207.226C723.865 207.639 719.917 203.696 719.917 203.696Z" fill="url(#paint11_linear_19_56)"/>
<path d="M729.262 204.729C729.635 203.594 731.791 201.703 735.651 200.309C739.818 198.804 743.271 198.346 748.857 198.244C743.828 201.719 746.115 206.901 741.983 207.226C732.367 207.983 729.262 204.729 729.262 204.729Z" fill="#D039A3"/>
<path d="M756.611 154.299C756.069 149.894 757.019 128.559 758.779 128.008C760.539 127.456 773.133 141.498 773.27 152.234C767.446 155.401 756.611 154.299 756.611 154.299Z" fill="url(#paint12_linear_19_56)"/>
<path d="M697.965 162.628C699.198 160.903 701.012 160.976 702.84 160.976C704.669 160.976 739.612 161.389 739.612 161.389C739.612 161.389 752.817 152.097 762.975 150.859C773.133 149.62 786.745 151.065 786.745 151.065C786.745 151.065 792.636 144.871 797.715 140.328C802.794 135.786 808.686 129.798 810.92 130.418C813.155 131.037 811.523 147.068 808.889 154.988C806.451 162.319 800.559 169.648 800.559 169.648C800.559 169.648 802.794 183.482 808.076 195.251C812.676 205.5 821.078 216.311 821.078 216.311C821.078 216.311 810.729 232.84 789.792 240.468C762.873 250.277 748.348 246.456 748.348 246.456C748.348 246.456 748.028 239.23 748.145 233.035C748.288 225.506 748.551 219.202 748.551 219.202C748.551 219.202 739.488 217.981 732.501 215.072C724.07 211.562 720.109 208.361 719.917 203.696C721.619 204.225 726.415 205.518 734.33 203.923C747.638 201.238 748.348 195.251 748.348 195.251C748.348 195.251 738.759 198.163 723.562 191.947C706.904 185.133 693.09 169.441 697.965 162.628Z" fill="url(#paint13_linear_19_56)"/>
<path d="M714.085 161.093C708.22 161.027 703.484 160.976 702.84 160.976C701.012 160.976 699.198 160.903 697.964 162.627C695.538 166.02 697.745 171.612 702.627 177.214C706.882 175.06 713.499 169.638 714.085 161.093Z" fill="url(#paint14_linear_19_56)"/>
<path d="M753.766 166.276C755.487 166.276 756.882 164.859 756.882 163.11C756.882 161.361 755.487 159.943 753.766 159.943C752.046 159.943 750.651 161.361 750.651 163.11C750.651 164.859 752.046 166.276 753.766 166.276Z" fill="#212F66"/>
<path d="M752.903 163.006C753.558 163.006 754.088 162.467 754.088 161.802C754.088 161.137 753.558 160.598 752.903 160.598C752.249 160.598 751.719 161.137 751.719 161.802C751.719 162.467 752.249 163.006 752.903 163.006Z" fill="#0090B2"/>
<path d="M773.813 172.882C775.832 172.882 777.469 171.218 777.469 169.165C777.469 167.113 775.832 165.449 773.813 165.449C771.793 165.449 770.156 167.113 770.156 169.165C770.156 171.218 771.793 172.882 773.813 172.882Z" fill="#212F66"/>
<path d="M772.32 169.374C773.031 169.374 773.608 168.788 773.608 168.065C773.608 167.343 773.031 166.757 772.32 166.757C771.609 166.757 771.033 167.343 771.033 168.065C771.033 168.788 771.609 169.374 772.32 169.374Z" fill="#0090B2"/>
<path d="M797.616 106.964C763.694 85.5316 719.096 96.1064 698.01 130.583C676.924 165.059 687.327 210.384 721.251 231.816C755.174 253.248 799.771 242.673 820.857 208.197C841.944 173.721 831.542 128.396 797.616 106.964ZM811.424 202.918C794.553 230.505 758.87 238.965 731.728 221.816C704.586 204.667 696.26 168.404 713.135 140.817C730.007 113.232 765.689 104.77 792.831 121.919C819.972 139.066 828.298 175.331 811.424 202.918Z" fill="url(#paint15_radial_19_56)"/>
<g opacity="0.5">
<path d="M754.483 113.962L752.689 114.369L751.036 114.816C749.916 115.142 748.808 115.497 747.714 115.878C746.006 116.476 744.145 115.553 743.555 113.817C742.968 112.081 743.875 110.19 745.585 109.592C745.814 109.511 746.069 109.456 746.3 109.43C747.587 109.288 748.871 109.18 750.154 109.109L752.118 109.04L753.957 109.047C755.309 109.05 756.403 110.17 756.398 111.544C756.396 112.727 755.577 113.714 754.483 113.962Z" fill="white"/>
</g>
<g opacity="0.5">
<path d="M737.672 119.222L735.837 120.049L734.177 120.869C733.052 121.457 731.941 122.078 730.85 122.735C728.676 124.06 726.592 125.541 724.617 127.168C720.67 130.419 717.172 134.251 714.251 138.515C713.388 139.782 711.677 140.097 710.43 139.218C709.208 138.358 708.891 136.663 709.693 135.403C712.756 130.616 716.491 126.25 720.765 122.497C722.901 120.621 725.172 118.896 727.553 117.342C728.744 116.569 729.963 115.836 731.203 115.138L733.134 114.111L734.949 113.222C736.566 112.431 738.509 113.122 739.289 114.765C740.069 116.409 739.389 118.384 737.769 119.175C737.743 119.189 737.698 119.208 737.672 119.222Z" fill="white"/>
</g>
<path d="M825.267 220.184C823.52 218.726 822.078 217.408 821.079 216.311C821.079 216.311 819.879 214.765 818.138 212.294C801.87 235.331 774.51 246.212 748.202 242.021C748.267 244.626 748.348 246.456 748.348 246.456C748.348 246.456 748.608 248.939 749.302 252.768C777.855 256.334 807.114 244.543 825.267 220.184Z" fill="url(#paint16_linear_19_56)"/>
<path d="M829.546 151.349C827.394 142.988 823.791 135.028 818.951 127.95C814.101 120.882 808.029 114.691 801.08 109.79C794.153 104.841 786.415 101.115 778.245 98.8946C770.087 96.6548 761.543 95.933 753.139 96.7093C736.316 98.2372 720.119 105.987 708.371 118.288C696.57 130.518 689.192 147.059 688.098 164.134C686.811 181.185 691.69 198.651 701.657 212.475C711.555 226.345 726.469 236.421 742.893 240.399C759.315 244.447 777.118 242.275 792.199 234.474C799.757 230.623 806.664 225.412 812.445 219.106C818.242 212.815 822.931 205.46 826.266 197.513C823.053 205.513 818.47 212.964 812.739 219.38C807.022 225.813 800.143 231.182 792.562 235.196C777.364 243.189 759.336 245.483 742.645 241.469C725.95 237.52 710.729 227.373 700.565 213.29C690.337 199.259 685.242 181.464 686.481 164.017C687.691 146.557 695.319 129.722 707.407 117.327C719.446 104.856 735.963 97.0744 753.043 95.6175C770.126 94.0565 787.652 98.9657 801.536 109.132C808.484 114.197 814.508 120.538 819.278 127.722C824.035 134.917 827.521 142.956 829.546 151.349Z" fill="white"/>
<path d="M829.527 151.354C826.852 152.261 824.282 153.64 821.951 155.535C811.311 164.18 809.58 179.96 818.088 190.777C820.376 193.688 823.178 195.938 826.252 197.507C832.363 182.558 833.266 166.372 829.527 151.354Z" fill="url(#paint17_linear_19_56)"/>
<path d="M177.778 258.869C176.807 259.832 175.652 261.415 174.597 263.099C173.536 264.797 172.544 266.639 171.637 268.537C169.824 272.343 168.346 276.386 167.213 280.498C164.951 288.73 164.085 297.272 164.801 305.496C165.505 313.729 167.805 321.627 171.522 328.803C175.226 335.991 180.319 342.465 186.328 348.172L169.026 365.255C161.996 357.331 155.942 348.182 151.793 338.078C147.616 327.998 145.454 317.037 145.464 306.256C145.451 295.458 147.496 284.896 151.109 275.075C152.927 270.159 155.128 265.414 157.79 260.865C159.126 258.59 160.574 256.363 162.219 254.178C163.885 252.004 165.656 249.824 168.232 247.672L177.778 258.869Z" fill="url(#paint18_linear_19_56)"/>
<path d="M166.264 280.255C158.268 280.255 152.924 274.049 151.417 272.06C151.144 271.698 151.211 271.18 151.567 270.902C151.923 270.626 152.432 270.694 152.706 271.054C154.166 272.985 159.545 279.236 167.465 278.553C167.912 278.509 168.306 278.852 168.343 279.307C168.38 279.761 168.049 280.161 167.602 280.199C167.148 280.237 166.701 280.255 166.264 280.255Z" fill="#00E2EC"/>
<path d="M155.428 306.2C150.889 306.2 147.294 304.46 145.111 303.038C144.734 302.792 144.624 302.282 144.866 301.897C145.108 301.512 145.61 301.4 145.989 301.647C149.244 303.77 155.944 306.662 164.246 302.159C164.639 301.945 165.133 302.095 165.344 302.5C165.555 302.903 165.406 303.402 165.009 303.616C161.522 305.509 158.287 306.2 155.428 306.2Z" fill="#00E2EC"/>
<path d="M152.649 336.72C152.009 336.72 151.409 336.698 150.857 336.667C150.408 336.641 150.067 336.251 150.093 335.795C150.119 335.339 150.504 334.987 150.951 335.018C155.815 335.308 164.762 334.591 169.978 326.599C170.225 326.219 170.729 326.114 171.104 326.368C171.478 326.619 171.58 327.133 171.332 327.513C166.266 335.275 158.058 336.72 152.649 336.72Z" fill="#00E2EC"/>
<path d="M817.558 628.364C815.933 622.857 782.344 622.858 778.009 622.307C775.622 622.003 767.318 594.566 752.208 563.017C726.543 567.247 707.31 589.271 702.135 597.88L702.138 597.888C732.076 624.092 752.811 649.401 763.112 652.313C772.611 655 819.183 633.871 817.558 628.364Z" fill="url(#paint19_linear_19_56)"/>
<path d="M752.208 563.017C739.877 537.274 723.015 508.795 701.129 490.079C672.381 465.493 642.571 454.375 619.274 452.173C619.274 452.173 587.723 465.817 571.872 481.08C556.432 495.946 555.348 507.786 552.367 528.432C582.976 530.358 610.07 538.357 649.072 559.814C669.071 570.817 686.809 584.47 702.138 597.89L702.135 597.881C707.31 589.271 726.543 567.247 752.208 563.017Z" fill="url(#paint20_linear_19_56)"/>
<path d="M695.935 564.219C695.423 564.219 694.917 563.975 694.602 563.514C662.363 516.628 585.269 488.777 568.475 485.891C567.591 485.738 566.994 484.887 567.144 483.987C567.293 483.088 568.119 482.492 569.018 482.634C586.083 485.566 664.452 513.899 697.264 561.621C697.778 562.369 697.599 563.398 696.864 563.922C696.58 564.122 696.255 564.219 695.935 564.219Z" fill="#9F36AD"/>
<path d="M422.482 228.906C422.482 228.906 398.713 224.363 356.862 226.428C343.871 227.069 332.426 228.303 322.725 229.723C320.227 239.525 316.359 248.767 311.342 257.222C318.872 259.051 325.373 259.877 357.065 275.362C388.758 290.848 435.697 322.557 452.753 319.341C472.459 315.625 521.826 297.249 523.858 269.581C525.99 240.546 422.482 228.906 422.482 228.906Z" fill="url(#paint21_linear_19_56)"/>
<path d="M523.858 269.581C524.342 262.979 519.354 257.278 511.374 252.407C504.164 257.475 495.297 266.385 492.505 278.872C490.02 289.986 491.468 299.63 492.656 304.691C508.675 296.066 522.792 284.107 523.858 269.581Z" fill="url(#paint22_linear_19_56)"/>
<path d="M429.931 249.14C429.806 249.14 429.677 249.12 429.552 249.079C387.672 235.159 320.799 239.167 315.777 241.078C315.151 241.321 314.446 240.993 314.209 240.353C313.971 239.712 314.291 238.998 314.922 238.759C320.225 236.737 386.986 232.325 430.309 246.725C430.95 246.938 431.299 247.637 431.089 248.288C430.922 248.808 430.444 249.14 429.931 249.14Z" fill="#9F36AD"/>
<path d="M522.639 258.844C516.442 242.429 489.989 229.148 473.514 220.851C468.742 218.448 463.54 216.175 458.223 213.973C457.523 219.312 455.252 227.843 448.078 234.963C439.447 243.525 428.32 245.065 421.26 245.172C426.28 251.469 431.462 257.328 436.702 261.737C449.915 272.856 476.883 289.89 497.256 291.761C506.011 292.566 513.731 290.701 518.252 284.097C521.493 279.361 527.369 271.371 522.639 258.844Z" fill="url(#paint23_linear_19_56)"/>
<path d="M518.254 284.095C521.495 279.361 527.369 271.373 522.639 258.844C521.376 255.499 519.262 252.286 516.574 249.217C509.249 253.04 496.032 263.097 492.505 278.872C491.558 283.109 491.189 287.128 491.153 290.768C493.233 291.216 495.284 291.578 497.257 291.759C506.013 292.564 513.733 290.699 518.254 284.095Z" fill="url(#paint24_linear_19_56)"/>
<path d="M458.225 213.973C438.418 205.765 417.02 198.541 410.293 189.262C403.595 180.026 406.127 164.175 403.182 152.923C400.985 144.53 394.141 134.443 387.336 135.579C379.055 136.96 377.787 148.381 379.413 157.465C381.038 166.55 383.069 173.983 377.991 175.222C373.64 176.284 367.994 172.728 365.395 171.712C363.635 171.023 356.706 170.852 359.097 179.145C362.212 189.951 380.766 198.661 391.399 207.845C399.798 215.101 410.132 231.213 421.262 245.171C428.322 245.063 439.448 243.524 448.08 234.961C455.254 227.843 457.524 219.312 458.225 213.973Z" fill="url(#paint25_linear_19_56)"/>
<path d="M556.16 405.235C556.16 405.235 528.802 362.425 469.818 318.102C405.913 270.082 316.053 248.334 307.495 248.727C307.495 248.727 290.836 270.613 272.552 282.176C254.267 293.739 216.48 294.977 216.48 294.977C216.48 294.977 222.575 347.628 248.985 411.222C257.494 431.709 266.655 446.67 277.676 466.298C309.933 523.751 361.129 583.215 429.796 586.932C419.909 530.908 461.895 446.116 556.16 405.235Z" fill="url(#paint26_linear_19_56)"/>
<path d="M505.185 436.625C504.711 436.625 504.24 436.415 503.919 436.009C434.421 348.329 349.786 289.586 298.426 265.924C297.608 265.547 297.246 264.569 297.616 263.737C297.987 262.908 298.949 262.539 299.768 262.914C351.452 286.727 436.593 345.805 506.45 433.938C507.012 434.648 506.903 435.689 506.205 436.259C505.904 436.506 505.543 436.625 505.185 436.625Z" fill="#FFA2BA"/>
<path d="M429.931 553.116C429.866 553.116 429.802 553.113 429.737 553.105C348.164 543.326 295.068 459.377 292.846 455.807C292.367 455.036 292.593 454.017 293.352 453.53C294.111 453.039 295.114 453.272 295.595 454.043C314.116 483.814 366.069 542.147 430.119 549.824C431.01 549.93 431.647 550.753 431.543 551.658C431.446 552.498 430.743 553.116 429.931 553.116Z" fill="#FFA2BA"/>
<path d="M315.08 350.863C312.101 365.729 366.547 416.178 382.257 416.178C397.5 416.178 453.341 352.126 470.2 318.393C470.07 318.296 469.948 318.198 469.818 318.103C446.414 300.516 419.531 286.456 394.432 275.714C371.361 289.928 318.347 334.566 315.08 350.863Z" fill="url(#paint27_linear_19_56)"/>
<path d="M378.594 369.633C386.45 369.633 392.82 363.16 392.82 355.175C392.82 347.19 386.45 340.717 378.594 340.717C370.737 340.717 364.368 347.19 364.368 355.175C364.368 363.16 370.737 369.633 378.594 369.633Z" fill="#1AA9E8"/>
<path d="M399.572 340.165C403.001 340.165 405.781 337.34 405.781 333.855C405.781 330.371 403.001 327.546 399.572 327.546C396.144 327.546 393.364 330.371 393.364 333.855C393.364 337.34 396.144 340.165 399.572 340.165Z" fill="#1AA9E8"/>
<path d="M378.594 386.972C361.343 386.972 347.307 372.707 347.307 355.175C347.307 337.643 361.343 323.378 378.594 323.378C395.844 323.378 409.88 337.643 409.88 355.175C409.88 372.707 395.844 386.972 378.594 386.972ZM378.594 326.682C363.134 326.682 350.558 339.463 350.558 355.175C350.558 370.887 363.134 383.669 378.594 383.669C394.053 383.669 406.629 370.887 406.629 355.175C406.629 339.463 394.053 326.682 378.594 326.682Z" fill="#1AA9E8"/>
<path d="M414.297 324.51C413.483 324.51 412.667 324.199 412.035 323.578C410.746 322.308 410.714 320.217 411.964 318.907L435.086 294.657C436.338 293.347 438.395 293.316 439.682 294.584C440.971 295.854 441.004 297.946 439.754 299.255L416.631 323.505C415.994 324.174 415.146 324.51 414.297 324.51Z" fill="#9F36AD"/>
<path d="M399.753 311.234C398.93 311.234 398.106 310.919 397.474 310.286C396.194 309.008 396.177 306.915 397.437 305.615L417.299 285.091C418.557 283.791 420.618 283.775 421.895 285.053C423.176 286.332 423.192 288.425 421.933 289.725L402.07 310.248C401.433 310.905 400.593 311.234 399.753 311.234Z" fill="#9F36AD"/>
<path d="M431.463 336.906C430.696 336.906 429.926 336.632 429.307 336.074C427.964 334.863 427.842 332.773 429.034 331.409L451.981 305.129C453.175 303.765 455.23 303.642 456.57 304.852C457.913 306.062 458.035 308.152 456.844 309.516L433.896 335.796C433.253 336.531 432.361 336.906 431.463 336.906Z" fill="#9F36AD"/>
<path d="M745.721 433.612C699.963 417.352 642.972 394.679 604.105 396.15C571.6 397.38 556.16 405.234 556.16 405.234C461.895 446.116 419.909 530.908 429.796 586.932C550.345 593.456 585.72 521.367 649.613 498.974C674.825 490.137 705.952 489.119 734.393 489.702C734.393 489.701 734.391 489.699 734.391 489.697C727.614 459.497 741.712 439.785 745.721 433.612Z" fill="url(#paint28_linear_19_56)"/>
<path d="M603.699 440.887C637.768 437.875 646.663 412.286 646.161 401.192C630.924 397.701 616.58 395.677 604.106 396.15C571.6 397.38 556.16 405.234 556.16 405.234C557.651 422.717 571.618 443.723 603.699 440.887Z" fill="url(#paint29_linear_19_56)"/>
<path d="M600.124 427.121C598.783 427.121 597.692 426.021 597.686 424.656L597.536 395.97C597.53 394.602 598.615 393.487 599.961 393.479C599.966 393.479 599.969 393.479 599.974 393.479C601.315 393.479 602.406 394.579 602.412 395.943L602.562 424.63C602.568 425.998 601.482 427.113 600.137 427.121C600.132 427.121 600.129 427.121 600.124 427.121Z" fill="#9F36AD"/>
<path d="M618.606 427.094C617.265 427.094 616.175 425.993 616.168 424.63L616.028 396.652C616.022 395.282 617.108 394.167 618.453 394.161C618.458 394.161 618.463 394.161 618.466 394.161C619.807 394.161 620.898 395.263 620.904 396.625L621.044 424.603C621.051 425.973 619.965 427.088 618.619 427.094C618.614 427.094 618.609 427.094 618.606 427.094Z" fill="#9F36AD"/>
<path d="M582.049 427.225C580.742 427.225 579.662 426.173 579.615 424.836L578.69 398.457C578.643 397.09 579.694 395.942 581.038 395.892C582.373 395.829 583.512 396.911 583.562 398.279L584.487 424.658C584.534 426.026 583.483 427.174 582.139 427.223C582.108 427.225 582.077 427.225 582.049 427.225Z" fill="#9F36AD"/>
<path d="M447.95 554.182C441.927 554.182 435.855 553.838 429.739 553.106C428.848 553.001 428.211 552.178 428.315 551.273C428.421 550.366 429.23 549.722 430.119 549.826C494.886 557.594 555.543 520.619 595.679 496.156C610.166 487.325 621.608 480.351 630.357 477.056C658.903 466.301 701.817 468.82 732.789 472.826C733.68 472.942 734.31 473.767 734.197 474.673C734.083 475.578 733.282 476.209 732.38 476.103C701.763 472.142 659.412 469.631 631.486 480.152C623.022 483.341 611.125 490.591 597.349 498.987C560.597 521.389 506.798 554.182 447.95 554.182Z" fill="#FFA2BA"/>
<path d="M809.701 488.237C816.773 485.221 826.227 479.376 836.925 461.396C843.967 449.559 849.386 427.408 845.051 427.534C835.571 427.81 824.306 448.104 808.889 449.42C795.734 450.543 772.676 443.19 745.721 433.613C741.712 439.785 727.614 459.498 734.392 489.698C734.392 489.699 734.393 489.701 734.393 489.703C767.981 490.388 797.819 493.305 809.701 488.237Z" fill="url(#paint30_linear_19_56)"/>
<path d="M765.007 479.152C770.392 479.152 774.758 474.715 774.758 469.241C774.758 463.768 770.392 459.331 765.007 459.331C759.621 459.331 755.255 463.768 755.255 469.241C755.255 474.715 759.621 479.152 765.007 479.152Z" fill="#9F36AD"/>
<path d="M268.489 511.362C272.145 476.261 283.116 457.059 284.335 429.598C285.664 399.631 276.036 312.592 220.95 300.345C211.198 298.177 200.227 300.45 200.227 300.45C178.015 332.142 156.617 378.393 158.512 437.857C160.602 503.404 198.017 546.639 220.272 569.175C220.46 569.365 220.637 569.546 220.824 569.735C227.787 563.073 244.443 551.743 268.838 551.278C267.565 538.004 267.177 523.944 268.489 511.362Z" fill="url(#paint31_linear_19_56)"/>
<path d="M190.882 465.732C184.004 443.632 166.992 437.808 158.504 437.382C158.509 437.542 158.509 437.697 158.513 437.858C159.489 468.422 168.146 494.132 179.366 515.158C188.73 508.183 197.79 487.922 190.882 465.732Z" fill="url(#paint32_linear_19_56)"/>
<path d="M164.504 478.615C163.449 478.615 162.477 477.915 162.165 476.836C161.787 475.523 162.526 474.146 163.818 473.761L179.934 468.952C181.225 468.573 182.58 469.322 182.961 470.632C183.339 471.946 182.6 473.323 181.308 473.708L165.192 478.516C164.962 478.582 164.73 478.615 164.504 478.615Z" fill="#9F36AD"/>
<path d="M161.601 465.363C160.547 465.363 159.575 464.663 159.263 463.584C158.884 462.271 159.623 460.893 160.915 460.509L176.258 455.931C177.55 455.55 178.904 456.3 179.284 457.611C179.663 458.925 178.923 460.302 177.631 460.687L162.289 465.264C162.06 465.332 161.829 465.363 161.601 465.363Z" fill="#9F36AD"/>
<path d="M168.447 492.577C167.433 492.577 166.487 491.929 166.141 490.9C165.705 489.605 166.384 488.196 167.659 487.755L183.149 482.372C184.426 481.924 185.81 482.619 186.245 483.914C186.681 485.209 186.001 486.618 184.727 487.059L169.237 492.443C168.975 492.535 168.707 492.577 168.447 492.577Z" fill="#9F36AD"/>
<path d="M230.296 544.674C229.744 544.674 229.206 544.388 228.902 543.873C228.622 543.401 228.253 542.793 227.805 542.051C197.741 492.502 190.177 449.392 189.124 421.954C186.73 359.569 204.762 315.177 215.796 298.783C216.301 298.03 217.315 297.837 218.055 298.352C218.796 298.867 218.986 299.895 218.479 300.648C207.673 316.708 190.011 360.303 192.372 421.825C193.411 448.868 200.881 491.379 230.573 540.317C231.029 541.071 231.406 541.691 231.691 542.172C232.152 542.955 231.904 543.969 231.133 544.438C230.87 544.598 230.581 544.674 230.296 544.674Z" fill="#FFA2BA"/>
<path d="M259.043 615.632C262.462 626.691 253.455 638 252.845 647.842C252.156 658.968 265.11 674.223 271.942 673.858C278.375 673.514 281.694 665.805 281.491 660.437C281.288 655.068 278.85 642.267 283.522 641.235C288.195 640.202 286.825 649.717 289.008 653.004C290.836 655.757 295.44 655.619 296.728 651.765C298.041 647.83 298.556 636.762 295.305 629.879C291.333 621.466 283.929 612.328 278.646 600.146C275.368 592.586 270.918 572.988 268.838 551.278C244.444 551.744 227.789 563.073 220.824 569.735C247.394 596.635 255.712 604.867 259.043 615.632Z" fill="url(#paint33_linear_19_56)"/>
<path d="M263.816 229.112C266.142 232.829 279.459 247.901 286.976 252.031C284.741 259.051 275.599 270.2 261.175 277.014C249.369 282.591 234.662 284.86 234.662 284.86C234.662 284.86 229.074 271.026 225.62 254.611C223.275 243.463 222.37 233.033 222.37 233.033C222.37 233.033 231.818 238.299 243.701 237.989C255.41 237.685 263.816 229.112 263.816 229.112Z" fill="url(#paint34_linear_19_56)"/>
<path d="M265.373 205.092C260.632 185.82 246.141 166.275 242.212 161.043H230.971L191.286 185.82L190.068 207.018C190.068 207.018 195.524 214.078 204.259 223.456C200.851 224.875 198.465 228.166 198.465 231.999C198.465 237.132 202.74 241.291 208.014 241.291C211.874 241.291 215.189 239.059 216.694 235.853C230.997 247.87 250.004 247.703 259.006 241.428C268.461 234.844 270.113 224.363 265.373 205.092Z" fill="url(#paint35_linear_19_56)"/>
<path d="M229.482 207.02C231.277 207.02 232.732 205.541 232.732 203.716C232.732 201.892 231.277 200.412 229.482 200.412C227.687 200.412 226.231 201.892 226.231 203.716C226.231 205.541 227.687 207.02 229.482 207.02Z" fill="#212F66"/>
<path d="M252.37 190.914C254.016 190.914 255.35 189.559 255.35 187.887C255.35 186.214 254.016 184.859 252.37 184.859C250.725 184.859 249.391 186.214 249.391 187.887C249.391 189.559 250.725 190.914 252.37 190.914Z" fill="#212F66"/>
<path d="M240.932 188.906C243.246 186.261 260.048 200.239 259.614 203.182C259.18 206.126 254.877 208.156 251.93 208.671C248.717 202.786 239.773 190.231 240.932 188.906Z" fill="url(#paint36_linear_19_56)"/>
<path d="M252.591 224.915C250.695 224.915 248.904 224.282 247.415 223.086C247.062 222.804 247.004 222.284 247.282 221.927C247.56 221.568 248.072 221.509 248.423 221.791C249.622 222.754 251.064 223.265 252.59 223.265C256.315 223.265 259.344 220.163 259.344 216.347C259.344 215.878 259.299 215.407 259.208 214.951C259.119 214.504 259.403 214.068 259.842 213.978C260.284 213.884 260.711 214.177 260.799 214.623C260.913 215.187 260.97 215.767 260.97 216.347C260.971 221.071 257.214 224.915 252.591 224.915Z" fill="#954374"/>
<path d="M251.152 138.47C246.954 134.478 240.722 139.159 236.931 143.425C233.139 147.692 230.147 152.662 226.638 152.373C221.627 151.96 223.358 139.793 217.158 140.535C207.947 141.636 203.343 163.384 200.364 165.036C197.385 166.688 194.887 159.846 190.206 162.834C184.382 166.55 186.182 184.149 185.465 188.437C184.982 191.322 176.635 196.578 177.473 207.019C178.484 219.598 190.677 228.939 198.469 232.041C198.469 232.028 198.467 232.014 198.467 232.003C198.467 227.601 201.617 223.921 205.841 222.963C205.805 218.458 204.96 213.3 203.884 209.499C201.311 200.414 195.421 193.359 195.421 193.359C199.213 192.946 222.711 185.824 239.099 171.233C253.1 158.766 255.572 142.672 251.152 138.47Z" fill="url(#paint37_linear_19_56)"/>
<path d="M223.6 125.926C195.876 125.926 171.605 140.938 158.217 163.399C170.833 151.79 187.565 144.715 205.925 144.715C245.197 144.715 277.031 177.069 277.031 216.981C277.031 243.096 263.398 265.972 242.975 278.669C275.779 269.953 299.988 239.632 299.988 203.561C299.988 160.685 265.787 125.926 223.6 125.926Z" fill="url(#paint38_radial_19_56)"/>
<path d="M243.141 269.949C218.658 269.949 192.184 261.078 178.829 242.396C154.721 208.671 169.958 146.522 196.2 131.093C167.555 142.289 147.214 170.502 147.214 203.561C147.214 246.438 181.413 281.195 223.602 281.195C241.306 281.195 257.591 275.057 270.544 264.783C262.034 268.108 252.801 269.949 243.141 269.949Z" fill="url(#paint39_linear_19_56)"/>
<path d="M166.943 231.918C162.206 231.918 157.804 233.364 154.125 235.828C160.684 250.392 171.536 262.531 185.047 270.575C188.311 266.495 190.274 261.297 190.274 255.63C190.276 242.533 179.83 231.918 166.943 231.918Z" fill="url(#paint40_linear_19_56)"/>
<g opacity="0.5">
<path d="M261.379 152.844L263.011 153.906L264.698 155.095C265.789 155.896 266.86 156.729 267.913 157.594C269.169 158.627 269.364 160.5 268.347 161.778C267.331 163.055 265.488 163.253 264.232 162.219C264.09 162.104 263.949 161.96 263.834 161.825C263.04 160.87 262.218 159.933 261.37 159.017L260.097 157.692L258.691 156.337C257.812 155.492 257.776 154.081 258.608 153.189C259.343 152.4 260.512 152.279 261.379 152.844Z" fill="white"/>
</g>
<g opacity="0.5">
<path d="M276.213 167.135C277.83 169.618 279.326 172.297 280.6 175.021C281.88 177.755 282.969 180.579 283.857 183.465C285.633 189.236 286.589 195.254 286.712 201.27C286.745 202.811 285.541 204.086 284.024 204.119C282.537 204.15 281.3 202.966 281.224 201.466C280.949 195.972 279.919 190.536 278.159 185.366C277.279 182.781 276.223 180.262 274.996 177.832C273.762 175.393 272.391 173.088 270.814 170.815C269.779 169.324 270.13 167.262 271.596 166.21C273.062 165.158 275.092 165.515 276.127 167.005C276.143 167.028 276.158 167.049 276.173 167.072L276.213 167.135Z" fill="white"/>
</g>
<path d="M322.725 229.723C309.315 231.685 299.266 234 293.171 235.609C281.164 262.49 254.539 281.196 223.598 281.196C220.819 281.196 218.077 281.036 215.373 280.742C208.757 288.088 201.599 298.345 197.636 304.242C205.929 306.444 214.627 307.625 223.597 307.625C271.258 307.623 311.307 274.531 322.725 229.723Z" fill="url(#paint41_linear_19_56)"/>
<path d="M196.192 131.073C204.505 127.621 213.475 125.797 222.487 125.536C231.502 125.317 240.575 126.719 249.133 129.704C266.294 135.631 281.117 148.115 290.288 164.018C299.466 179.923 302.757 199.244 299.425 217.313C297.772 226.355 294.528 235.077 289.903 242.949C285.227 250.787 279.228 257.799 272.192 263.468C285.846 251.623 295.266 234.961 298.195 217.092C299.659 208.166 299.666 198.998 298.094 190.113C296.528 181.222 293.394 172.627 288.887 164.852C284.437 157.043 278.596 150.057 271.77 144.276C264.934 138.498 257.089 133.977 248.72 130.9C231.967 124.749 213.056 124.82 196.192 131.073Z" fill="white"/>
<path d="M400.442 180.688C400.653 181.536 400.15 182.396 399.316 182.613L372.322 190.214C371.488 190.429 370.641 189.917 370.428 189.069L353.526 128.792C353.314 127.946 353.818 127.084 354.65 126.868L383.27 117.614C384.102 117.4 384.95 117.912 385.161 118.758L400.442 180.688Z" fill="url(#paint42_linear_19_56)"/>
<path d="M394.1 176.337L372.647 182.508L357.781 130.006L380.742 122.215L394.1 176.337Z" fill="url(#paint43_linear_19_56)"/>
<path d="M434.335 57.1107C435.08 59.7404 433.584 62.4857 430.997 63.2422L321.709 96.848C319.122 97.6045 316.421 96.0848 315.676 93.4552L306.021 57.6724C305.276 55.0427 306.772 52.2974 309.361 51.5409L418.647 18.7611C421.234 18.0046 423.935 19.5242 424.68 22.1555L434.335 57.1107Z" fill="#C7A0F6"/>
<path d="M419.997 21.8697C420.716 21.8697 421.358 22.362 421.553 23.0475L431.213 58.0242C431.46 58.8997 430.962 59.8164 430.058 60.0807L320.814 93.6732C320.665 93.7162 320.513 93.7393 320.362 93.7393C319.644 93.7393 319.003 93.247 318.813 92.5814L309.148 56.7589C308.985 56.1857 309.166 55.7265 309.288 55.5019C309.41 55.2789 309.697 54.8792 310.282 54.7074L419.547 21.9342C419.695 21.8929 419.846 21.8714 419.997 21.8697ZM419.997 18.5662C419.552 18.5662 419.099 18.6289 418.648 18.7611L309.362 51.5409C306.775 52.2974 305.28 55.0427 306.023 57.6724L315.678 93.4552C316.293 95.6273 318.243 97.0429 320.361 97.0429C320.806 97.0429 321.261 96.9801 321.711 96.848L430.999 63.2422C433.586 62.4857 435.082 59.7404 434.337 57.1107L424.683 22.1539C424.067 19.9817 422.115 18.5662 419.997 18.5662Z" fill="#FDE1A7"/>
<path d="M372.505 147.968C375.797 147.968 378.465 145.256 378.465 141.91C378.465 138.565 375.797 135.853 372.505 135.853C369.214 135.853 366.545 138.565 366.545 141.91C366.545 145.256 369.214 147.968 372.505 147.968Z" fill="#FE697A"/>
<path d="M372.507 143.149C372.473 143.149 372.439 143.147 372.403 143.146C371.732 143.088 371.234 142.488 371.289 141.806L376.453 79.5353C376.51 78.8531 377.105 78.3625 377.771 78.4038C378.442 78.4616 378.94 79.0612 378.884 79.7434L373.721 142.014C373.666 142.662 373.134 143.149 372.507 143.149Z" fill="#FDE1A7"/>
<path d="M390.482 37.3273L377.909 53.5792L397.714 61.194L390.482 37.3273Z" fill="white"/>
<path d="M387.593 37.0529L346.798 49.8229L371.28 58.1413L387.593 37.0529Z" fill="white"/>
<path d="M351.885 75.5117L363.651 58.1629L344.674 51.7159L351.885 75.5117Z" fill="white"/>
<path d="M376.331 55.6207L372.666 60.3581C372.43 60.6636 372.074 60.8321 371.707 60.8321C371.577 60.8321 371.447 60.8107 371.32 60.7677L366.058 58.9788L354.456 76.0848L395.854 63.1248L376.331 55.6207Z" fill="white"/>
<path d="M434.243 451.138C434.605 456.029 432.099 458.093 428.962 459.139L346.204 487.4C342.573 488.125 339.048 485.725 338.332 482.035L328.233 429.939C327.516 426.249 329.774 422.578 333.408 421.404C333.408 421.404 358.588 413.804 375.146 410.396C391.292 407.073 421.044 400.575 421.044 400.575C424.675 399.85 427.358 402 428.273 406.267L434.243 451.138Z" fill="url(#paint44_linear_19_56)"/>
<path d="M387.674 451.209C387.537 451.209 387.401 451.186 387.268 451.138L327.695 429.721C327.06 429.493 326.728 428.786 326.952 428.14C327.177 427.496 327.874 427.156 328.508 427.385L387.279 448.513L425.529 401.538C425.957 401.014 426.729 400.94 427.246 401.373C427.764 401.81 427.837 402.59 427.408 403.119L388.615 450.761C388.378 451.049 388.031 451.209 387.674 451.209Z" fill="#C44B5F"/>
<path d="M341.555 487.847C341.308 487.847 341.06 487.771 340.844 487.613C340.297 487.213 340.174 486.438 340.567 485.883L365.557 450.622C365.951 450.069 366.713 449.942 367.259 450.342C367.805 450.741 367.929 451.516 367.535 452.071L342.545 487.332C342.306 487.667 341.934 487.847 341.555 487.847Z" fill="#C44B5F"/>
<path d="M433.131 457.507C432.968 457.507 432.804 457.474 432.647 457.405L402.087 443.949C401.469 443.677 401.185 442.948 401.453 442.321C401.721 441.691 402.436 441.401 403.055 441.675L433.615 455.13C434.233 455.403 434.517 456.131 434.249 456.759C434.051 457.228 433.602 457.507 433.131 457.507Z" fill="#C44B5F"/>
<path d="M681.735 119.839C682.294 123.777 680.378 125.586 677.897 126.608L612.474 149.139C609.575 149.93 606.594 148.184 605.814 145.239L594.825 103.657C594.047 100.712 595.675 97.6161 598.55 96.4632C598.55 96.4632 618.51 88.9095 631.72 85.2277C644.602 81.6383 665.071 76.3691 665.071 76.3691C667.97 75.5779 670.255 77.1702 671.227 80.5713L681.735 119.839Z" fill="url(#paint45_linear_19_56)"/>
<path d="M643.999 117.366C643.926 117.366 643.853 117.356 643.78 117.335L594.425 103.336C593.993 103.214 593.741 102.758 593.861 102.319C593.98 101.879 594.424 101.617 594.863 101.745L643.65 115.582L668.879 77.023C669.126 76.6414 669.63 76.5406 670.005 76.7917C670.377 77.0444 670.48 77.5565 670.231 77.9364L644.674 116.995C644.523 117.233 644.266 117.366 643.999 117.366Z" fill="#D66976"/>
<path d="M608.671 149.583C608.523 149.583 608.375 149.544 608.242 149.459C607.86 149.218 607.743 148.708 607.98 148.321L626.29 118.399C626.528 118.012 627.031 117.897 627.409 118.133C627.79 118.374 627.907 118.885 627.67 119.271L609.36 149.193C609.207 149.444 608.942 149.583 608.671 149.583Z" fill="#D66976"/>
<path d="M681.114 124.876C680.982 124.876 680.847 124.843 680.725 124.775L655.275 110.642C654.881 110.422 654.736 109.92 654.952 109.521C655.167 109.121 655.664 108.974 656.054 109.192L681.504 123.325C681.899 123.544 682.044 124.046 681.827 124.446C681.678 124.72 681.402 124.876 681.114 124.876Z" fill="#D66976"/>
<path d="M620.656 305.38C622.182 308.88 620.87 311.067 618.837 312.671L567.7 353.844C565.216 355.344 562.005 354.518 560.529 351.994L536.42 318.851C534.941 316.327 535.656 313.028 538.026 311.196C538.026 311.196 554.582 298.902 565.881 291.986C576.897 285.242 593.038 274.191 593.038 274.191C595.519 272.69 598.047 273.558 599.82 276.452L620.656 305.38Z" fill="url(#paint46_linear_19_56)"/>
<path d="M535.965 318.692C535.518 318.692 535.152 318.324 535.152 317.868C535.152 317.412 535.514 317.042 535.963 317.04L584.684 316.926L596.696 273.81C596.818 273.372 597.274 273.113 597.699 273.24C598.133 273.364 598.383 273.821 598.261 274.259L586.081 317.975C585.98 318.33 585.664 318.575 585.301 318.577L535.965 318.692C535.965 318.692 535.966 318.692 535.965 318.692Z" fill="#D66976"/>
<path d="M564.079 355.324C564.025 355.324 563.971 355.319 563.916 355.307C563.476 355.217 563.193 354.78 563.282 354.334L569.317 324.227C569.408 323.78 569.842 323.492 570.276 323.583C570.716 323.674 570.999 324.11 570.911 324.556L564.875 354.663C564.795 355.055 564.457 355.324 564.079 355.324Z" fill="#D66976"/>
<path d="M621.161 310.275C621.152 310.275 621.142 310.275 621.134 310.275L594.377 309.345C593.93 309.33 593.579 308.947 593.594 308.491C593.61 308.035 594.055 307.655 594.434 307.695L621.191 308.625C621.637 308.639 621.989 309.023 621.974 309.479C621.958 309.923 621.598 310.275 621.161 310.275Z" fill="#D66976"/>
<path d="M99.4203 465.348C102.629 468.452 102.172 471.427 100.675 474.101L69.0668 538.926C67.0353 541.692 63.1801 542.264 60.4578 540.198L22.8329 511.932C20.1074 509.867 19.4215 505.956 21.1833 502.882C21.1833 502.882 30.4684 485.252 39.6756 472.568C48.6519 460.203 61.2867 440.807 61.2867 440.807C63.3183 438.042 66.4485 437.826 69.6552 440.16L99.4203 465.348Z" fill="url(#paint47_linear_19_56)"/>
<path d="M21.9002 512.309C21.4094 512.309 20.9462 512.003 20.7609 511.511C20.522 510.87 20.8389 510.156 21.4679 509.912L70.8629 490.849L64.8316 438.753C64.7519 438.074 65.2314 437.458 65.8994 437.377C66.5609 437.302 67.1736 437.781 67.2532 438.462L73.3967 491.518C73.4633 492.082 73.1415 492.619 72.6182 492.821L22.3341 512.228C22.1911 512.284 22.0449 512.309 21.9002 512.309Z" fill="#D66976"/>
<path d="M65.4216 542.119C65.0413 542.119 64.7 541.844 64.6252 541.451L57.8381 505.984C57.752 505.536 58.0397 505.102 58.4801 505.014C58.9173 504.932 59.3464 505.221 59.4325 505.668L66.2196 541.136C66.3057 541.583 66.0181 542.018 65.5776 542.105C65.5256 542.114 65.4736 542.119 65.4216 542.119Z" fill="#D66976"/>
<path d="M77.9897 478.293C77.6483 478.293 77.3298 478.072 77.2176 477.725C77.0779 477.291 77.3103 476.825 77.7361 476.683L101.519 468.749C101.948 468.602 102.404 468.843 102.544 469.275C102.684 469.709 102.452 470.175 102.026 470.317L78.2432 478.25C78.1587 478.282 78.0725 478.293 77.9897 478.293Z" fill="#D66976"/>
<path d="M39.7326 558.851C42.8742 558.851 45.421 556.263 45.421 553.07C45.421 549.877 42.8742 547.289 39.7326 547.289C36.591 547.289 34.0442 549.877 34.0442 553.07C34.0442 556.263 36.591 558.851 39.7326 558.851Z" fill="#FE697A"/>
<path d="M310.495 458.716C313.637 458.716 316.183 456.128 316.183 452.935C316.183 449.742 313.637 447.154 310.495 447.154C307.353 447.154 304.807 449.742 304.807 452.935C304.807 456.128 307.353 458.716 310.495 458.716Z" fill="#FE697A"/>
<path d="M529.532 344.564C532.674 344.564 535.22 341.976 535.22 338.783C535.22 335.59 532.674 333.002 529.532 333.002C526.39 333.002 523.844 335.59 523.844 338.783C523.844 341.976 526.39 344.564 529.532 344.564Z" fill="#FE697A"/>
<path d="M649.47 159.941C652.612 159.941 655.158 157.353 655.158 154.16C655.158 150.967 652.612 148.379 649.47 148.379C646.328 148.379 643.781 150.967 643.781 154.16C643.781 157.353 646.328 159.941 649.47 159.941Z" fill="#FE697A"/>
<path d="M628.756 72.8113C627.877 72.8113 627.154 72.0977 627.131 71.1991C626.985 65.0875 625.462 60.7251 622.476 57.8609C616.229 51.8715 603.66 52.3009 587.762 52.8477L583.571 52.9897C577.385 53.1747 573.458 52.0432 571.15 49.4037C568.01 45.8127 568.807 40.4146 569.649 34.6994C570.411 29.5442 571.196 24.2122 569.296 19.7903C563.677 6.70318 530.535 7.07978 503.053 14.9374C474.574 23.0774 452.508 31.9228 452.288 32.0103C451.454 32.344 450.508 31.931 450.179 31.082C449.847 30.2346 450.257 29.2749 451.092 28.938C451.313 28.8488 473.524 19.9456 502.174 11.756C525.323 5.13893 564.823 1.11021 572.278 18.4673C574.55 23.7613 573.656 29.8316 572.865 35.1884C572.106 40.3321 571.451 44.7737 573.58 47.2085C575.176 49.0353 578.415 49.8431 583.468 49.6878L587.65 49.5491C604.307 48.9759 617.47 48.5249 624.704 55.4608C628.355 58.961 630.211 64.0832 630.38 71.1198C630.401 72.0316 629.691 72.7898 628.794 72.8113C628.782 72.8113 628.769 72.8113 628.756 72.8113Z" fill="#FDE1A7"/>
<path d="M637.97 59.0219C637.31 59.0219 636.767 58.4868 636.751 57.8128C636.482 46.5988 631.954 41.2998 621.12 39.5209C620.456 39.4118 620.002 38.7759 620.111 38.1003C620.218 37.4247 620.859 36.9672 621.507 37.0746C633.44 39.0336 638.893 45.4095 639.188 57.7517C639.205 58.4355 638.673 59.0038 638 59.0203C637.989 59.0219 637.979 59.0219 637.97 59.0219Z" fill="#FDE1A7"/>
<path d="M460.44 14.5127C460.057 14.5127 459.678 14.3294 459.441 13.9842C459.054 13.4242 459.189 12.6512 459.74 12.2597C463.26 9.75391 482.074 -0.183273 503.151 0.680614C503.824 0.708695 504.347 1.28516 504.321 1.96735C504.295 2.65119 503.716 3.19794 503.055 3.15664C482.625 2.31753 464.525 11.8798 461.139 14.2897C460.926 14.44 460.683 14.5127 460.44 14.5127Z" fill="#FDE1A7"/>
<path d="M502.899 44.0385C502.746 44.0385 502.59 44.0088 502.437 43.946C498.223 42.1935 486.292 42.3835 482.445 42.5916C481.733 42.6098 481.198 42.101 481.162 41.4205C481.128 40.7366 481.643 40.1535 482.315 40.1172C482.471 40.1106 497.842 39.3607 503.36 41.6533C503.983 41.9127 504.282 42.6362 504.026 43.2705C503.835 43.7478 503.38 44.0385 502.899 44.0385Z" fill="#FDE1A7"/>
<path d="M615.349 272.678C615.283 272.678 615.214 272.675 615.146 272.665C614.255 272.553 613.623 271.727 613.735 270.821C614.927 261.125 624.953 256.642 634.648 252.306C645.586 247.416 655.917 242.795 656.114 231.629C656.254 223.773 649.818 219.745 642.368 215.08C635.018 210.478 626.685 205.263 625.517 195.239C624.132 183.362 632.723 173.461 639.624 165.506C643.4 161.156 646.967 157.044 647.91 153.704C648.157 152.829 649.057 152.322 649.919 152.571C650.782 152.822 651.281 153.737 651.034 154.614C649.889 158.671 646.262 162.85 642.062 167.692C635.252 175.541 627.532 184.438 628.746 194.849C629.73 203.286 636.697 207.649 644.074 212.265C651.677 217.026 659.539 221.947 659.366 231.687C659.131 244.966 646.819 250.471 635.959 255.329C626.685 259.475 617.925 263.393 616.963 271.229C616.857 272.067 616.157 272.678 615.349 272.678Z" fill="#FDE1A7"/>
<path d="M606.545 211.355C606.16 211.355 605.78 211.17 605.544 210.825C596.643 197.845 601.148 185.548 604.772 180.858C605.19 180.32 605.955 180.226 606.484 180.65C607.013 181.073 607.106 181.853 606.69 182.39C606.596 182.51 597.441 194.676 607.543 209.41C607.928 209.971 607.792 210.743 607.239 211.134C607.028 211.284 606.784 211.355 606.545 211.355Z" fill="#FDE1A7"/>
<path d="M446.05 430.218C445.512 430.218 444.986 429.947 444.675 429.45C444.196 428.68 444.42 427.659 445.177 427.17C449.876 424.143 458.136 423.323 467.7 422.374C475.745 421.576 484.863 420.671 492.232 418.208C504.262 414.187 517.487 405.514 518.521 393.224C519.197 385.202 515.488 381.368 511.563 377.311C508.252 373.89 504.83 370.354 504.558 364.43C503.854 349.059 527.834 337.754 528.856 337.28C529.669 336.902 530.636 337.267 531.009 338.097C531.382 338.927 531.022 339.906 530.205 340.286C522.248 343.978 507.323 353.743 507.805 364.277C508.018 368.938 510.734 371.744 513.879 374.995C517.949 379.201 522.561 383.968 521.76 393.505C520.59 407.4 506.265 416.999 493.248 421.346C485.538 423.923 476.23 424.846 468.017 425.661C459.247 426.531 450.962 427.354 446.92 429.962C446.65 430.135 446.348 430.218 446.05 430.218Z" fill="#FDE1A7"/>
<path d="M492.777 362.494C492.715 362.494 492.655 362.491 492.593 362.484C491.701 362.382 491.061 361.564 491.16 360.659C493.235 341.888 506.515 334.346 511.458 333.025C512.326 332.79 513.216 333.32 513.444 334.203C513.671 335.085 513.153 335.988 512.285 336.221C508.235 337.305 496.252 344.188 494.389 361.031C494.298 361.872 493.593 362.494 492.777 362.494Z" fill="#FDE1A7"/>
<path d="M308.538 454.81C303.936 454.81 292.401 452.667 267.274 438.052C263.975 436.133 260.627 434.154 257.229 432.145C223.675 412.314 185.649 389.85 141.993 393.665C109.656 396.503 94.3041 415.862 89.2592 422.225C88.7652 422.846 88.3751 423.34 88.0793 423.675C87.4828 424.357 86.4557 424.42 85.7844 423.812C85.1132 423.208 85.053 422.162 85.6495 421.482C85.9193 421.173 86.2769 420.722 86.7287 420.152C91.9881 413.517 107.997 393.333 141.715 390.375C186.385 386.437 224.892 409.212 258.865 429.291C262.256 431.295 265.597 433.27 268.89 435.185C300.921 453.814 309.886 451.395 309.972 451.372C310.807 451.113 311.722 451.569 312.005 452.411C312.288 453.252 311.893 454.161 311.077 454.478C310.838 454.57 310.074 454.81 308.538 454.81Z" fill="#FDE1A7"/>
<path d="M80.9052 399.866C80.6371 399.866 80.3689 399.777 80.1446 399.595C79.6197 399.167 79.5352 398.388 79.9545 397.853C84.4028 392.2 97.2961 379.26 120.962 381.287C121.633 381.345 122.13 381.943 122.075 382.625C122.018 383.307 121.417 383.811 120.758 383.756C98.2793 381.842 86.0639 394.058 81.8577 399.4C81.6171 399.706 81.2628 399.866 80.9052 399.866Z" fill="#FDE1A7"/>
<path d="M35.6675 621.619C34.8207 621.619 34.1072 620.953 34.0471 620.081C31.9521 589.432 35.4627 562.44 38.1672 552.624C38.4093 551.745 39.3081 551.231 40.1695 551.479C41.0341 551.724 41.538 552.637 41.2958 553.514C38.6515 563.116 35.2238 589.617 37.2895 619.852C37.3513 620.762 36.6768 621.55 35.7813 621.614C35.7439 621.618 35.7049 621.619 35.6675 621.619Z" fill="#FDE1A7"/>
<path d="M111.091 728.682C110.882 728.682 110.667 728.641 110.461 728.553C109.928 728.323 97.3953 722.856 95.9862 713.685C95.0614 707.671 97.6684 703.824 100.189 700.104C101.686 697.896 103.235 695.613 104.147 692.77C107.625 681.936 100.204 675.985 97.0508 674.607C96.2268 674.245 95.8464 673.274 96.2008 672.437C96.5534 671.599 97.5107 671.216 98.3363 671.573C102.247 673.284 111.47 680.611 107.238 693.798C106.18 697.095 104.42 699.69 102.868 701.981C100.412 705.601 98.4729 708.464 99.1977 713.177C100.329 720.525 111.613 725.461 111.725 725.51C112.551 725.866 112.939 726.835 112.59 727.674C112.327 728.304 111.724 728.682 111.091 728.682Z" fill="#FDE1A7"/>
<path d="M118.755 704.841C118.462 704.841 118.17 704.735 117.937 704.52C117.438 704.062 117.399 703.278 117.851 702.771C121.883 698.24 122.2 693.276 121.755 689.912C121.089 684.872 118.527 681.137 116.921 680.097C116.354 679.728 116.187 678.962 116.549 678.387C116.912 677.809 117.666 677.64 118.233 678.009C120.57 679.523 123.447 684.096 124.172 689.581C124.685 693.468 124.32 699.198 119.66 704.433C119.418 704.703 119.086 704.841 118.755 704.841Z" fill="#FDE1A7"/>
<path d="M437.644 35.6575L447.781 18.7498L455.807 42.8164L437.644 35.6575Z" fill="#FE697A"/>
<path d="M67.4871 636.923L12.2492 626.702C6.86145 626.152 3.27774 628.578 2.71865 633.286C2.71865 633.286 1.86702 641.675 0.717957 652.754C1.93203 654.366 3.15097 655.969 4.38455 657.544C25.253 684.188 49.2809 707.207 75.6215 726.223L74.8642 646.471C74.8528 642.245 73.3965 638.388 67.4871 636.923Z" fill="url(#paint48_linear_19_56)"/>
<path d="M45.3234 673.904C44.9414 673.904 44.5579 673.768 44.2491 673.491C43.5762 672.886 43.5112 671.842 44.106 671.158L71.8851 639.181C72.4783 638.499 73.5055 638.433 74.1783 639.036C74.8512 639.641 74.9162 640.684 74.3213 641.368L46.5423 673.345C46.2221 673.715 45.7736 673.904 45.3234 673.904Z" fill="#D66976"/>
<path d="M49.3295 692.303L8.27371 626.477C7.79263 625.706 6.78984 625.478 6.03085 625.965C5.27185 626.452 5.04757 627.475 5.52702 628.245L45.975 693.096L41.9069 698.486C42.7082 699.234 43.5013 699.992 44.3091 700.73L49.2466 694.191C49.6611 693.643 49.6936 692.888 49.3295 692.303Z" fill="#D66976"/>
<defs>
<linearGradient id="paint0_linear_19_56" x1="901.935" y1="240.594" x2="976.566" y2="240.594" gradientUnits="userSpaceOnUse">
<stop stop-color="#FFE2A8"/>
<stop offset="1" stop-color="#728390"/>
</linearGradient>
<linearGradient id="paint1_linear_19_56" x1="825.94" y1="208.005" x2="861.937" y2="208.005" gradientUnits="userSpaceOnUse">
<stop stop-color="#A281FF"/>
<stop offset="1" stop-color="#FF57BD"/>
</linearGradient>
<linearGradient id="paint2_linear_19_56" x1="836.276" y1="355.457" x2="893.355" y2="355.457" gradientUnits="userSpaceOnUse">
<stop stop-color="#FF57BD"/>
<stop offset="1" stop-color="#FE6A77"/>
</linearGradient>
<linearGradient id="paint3_linear_19_56" x1="873.579" y1="383.824" x2="908.282" y2="383.824" gradientUnits="userSpaceOnUse">
<stop stop-color="#C5188E"/>
<stop offset="1" stop-color="#9F36AD"/>
</linearGradient>
<linearGradient id="paint4_linear_19_56" x1="731.032" y1="267.177" x2="762.936" y2="267.177" gradientUnits="userSpaceOnUse">
<stop stop-color="#FF57BD"/>
<stop offset="1" stop-color="#FE6A77"/>
</linearGradient>
<linearGradient id="paint5_linear_19_56" x1="691.741" y1="267.06" x2="733.187" y2="267.06" gradientUnits="userSpaceOnUse">
<stop stop-color="#C5188E"/>
<stop offset="1" stop-color="#9F36AD"/>
</linearGradient>
<linearGradient id="paint6_linear_19_56" x1="769.226" y1="313.009" x2="921.064" y2="258.632" gradientUnits="userSpaceOnUse">
<stop stop-color="#05C5DA"/>
<stop offset="1" stop-color="#5860C4"/>
</linearGradient>
<linearGradient id="paint7_linear_19_56" x1="886.24" y1="325.323" x2="950.003" y2="325.323" gradientUnits="userSpaceOnUse">
<stop stop-color="#00E2EC"/>
<stop offset="1" stop-color="#0090B2"/>
</linearGradient>
<linearGradient id="paint8_linear_19_56" x1="922.624" y1="374.883" x2="961.699" y2="374.883" gradientUnits="userSpaceOnUse">
<stop stop-color="#A281FF"/>
<stop offset="1" stop-color="#FF57BD"/>
</linearGradient>
<linearGradient id="paint9_linear_19_56" x1="797.32" y1="256.935" x2="832.854" y2="291.897" gradientUnits="userSpaceOnUse">
<stop stop-color="#00E2EC"/>
<stop offset="1" stop-color="#0090B2"/>
</linearGradient>
<linearGradient id="paint10_linear_19_56" x1="740.601" y1="302.465" x2="794.511" y2="302.465" gradientUnits="userSpaceOnUse">
<stop stop-color="#A281FF"/>
<stop offset="1" stop-color="#FF57BD"/>
</linearGradient>
<linearGradient id="paint11_linear_19_56" x1="719.917" y1="199.767" x2="750.386" y2="199.767" gradientUnits="userSpaceOnUse">
<stop stop-color="#9F36AD"/>
<stop offset="0.1071" stop-color="#8D3399"/>
<stop offset="0.4036" stop-color="#602A65"/>
<stop offset="0.662" stop-color="#3F243F"/>
<stop offset="0.8695" stop-color="#2A2028"/>
<stop offset="1" stop-color="#231F20"/>
</linearGradient>
<linearGradient id="paint12_linear_19_56" x1="751.989" y1="134.856" x2="771.491" y2="154.045" gradientUnits="userSpaceOnUse">
<stop stop-color="#FFE2A8"/>
<stop offset="1" stop-color="#728390"/>
</linearGradient>
<linearGradient id="paint13_linear_19_56" x1="726.092" y1="133.968" x2="816.179" y2="222.608" gradientUnits="userSpaceOnUse">
<stop stop-color="#FFE2A8"/>
<stop offset="1" stop-color="#728390"/>
</linearGradient>
<linearGradient id="paint14_linear_19_56" x1="696.972" y1="169.094" x2="714.085" y2="169.094" gradientUnits="userSpaceOnUse">
<stop stop-color="#653271"/>
<stop offset="0.1129" stop-color="#5B2F65"/>
<stop offset="0.496" stop-color="#3D263F"/>
<stop offset="0.8053" stop-color="#2A2128"/>
<stop offset="1" stop-color="#231F20"/>
</linearGradient>
<radialGradient id="paint15_radial_19_56" cx="0" cy="0" r="1" gradientUnits="userSpaceOnUse" gradientTransform="translate(759.434 169.39) scale(72.3342 73.5149)">
<stop stop-color="#4E40AF" stop-opacity="0"/>
<stop offset="0.1096" stop-color="#5446B2" stop-opacity="0.0438"/>
<stop offset="0.2617" stop-color="#6558B9" stop-opacity="0.1047"/>
<stop offset="0.4387" stop-color="#8076C6" stop-opacity="0.1755"/>
<stop offset="0.6345" stop-color="#A69FD7" stop-opacity="0.2538"/>
<stop offset="0.8432" stop-color="#D6D3ED" stop-opacity="0.3373"/>
<stop offset="1" stop-color="white" stop-opacity="0.4"/>
</radialGradient>
<linearGradient id="paint16_linear_19_56" x1="748.202" y1="232.843" x2="825.267" y2="232.843" gradientUnits="userSpaceOnUse">
<stop stop-color="#FF57BD"/>
<stop offset="1" stop-color="#FE6A77"/>
</linearGradient>
<linearGradient id="paint17_linear_19_56" x1="812.686" y1="174.43" x2="831.751" y2="174.43" gradientUnits="userSpaceOnUse">
<stop stop-color="#05C5DA"/>
<stop offset="1" stop-color="#0090B2"/>
</linearGradient>
<linearGradient id="paint18_linear_19_56" x1="145.464" y1="306.462" x2="186.328" y2="306.462" gradientUnits="userSpaceOnUse">
<stop stop-color="#05C5DA"/>
<stop offset="1" stop-color="#5860C4"/>
</linearGradient>
<linearGradient id="paint19_linear_19_56" x1="702.136" y1="607.784" x2="817.599" y2="607.784" gradientUnits="userSpaceOnUse">
<stop stop-color="#05C5DA"/>
<stop offset="1" stop-color="#5860C4"/>
</linearGradient>
<linearGradient id="paint20_linear_19_56" x1="552.367" y1="525.031" x2="752.208" y2="525.031" gradientUnits="userSpaceOnUse">
<stop stop-color="#FF57BD"/>
<stop offset="1" stop-color="#FE6A77"/>
</linearGradient>
<linearGradient id="paint21_linear_19_56" x1="417.617" y1="225.89" x2="417.617" y2="319.569" gradientUnits="userSpaceOnUse">
<stop stop-color="#FE6A77"/>
<stop offset="1" stop-color="#C91C91"/>
</linearGradient>
<linearGradient id="paint22_linear_19_56" x1="491.141" y1="278.55" x2="523.89" y2="278.55" gradientUnits="userSpaceOnUse">
<stop stop-color="#05C5DA"/>
<stop offset="1" stop-color="#5860C4"/>
</linearGradient>
<linearGradient id="paint23_linear_19_56" x1="421.262" y1="252.953" x2="524.411" y2="252.953" gradientUnits="userSpaceOnUse">
<stop stop-color="#FF57BD"/>
<stop offset="1" stop-color="#FE6A77"/>
</linearGradient>
<linearGradient id="paint24_linear_19_56" x1="491.152" y1="270.576" x2="524.411" y2="270.576" gradientUnits="userSpaceOnUse">
<stop stop-color="#05C5DA"/>
<stop offset="1" stop-color="#0090B2"/>
</linearGradient>
<linearGradient id="paint25_linear_19_56" x1="358.6" y1="190.331" x2="458.224" y2="190.331" gradientUnits="userSpaceOnUse">
<stop stop-color="#00E2EC"/>
<stop offset="1" stop-color="#0090B2"/>
</linearGradient>
<linearGradient id="paint26_linear_19_56" x1="279.63" y1="478.059" x2="480.647" y2="312.094" gradientUnits="userSpaceOnUse">
<stop stop-color="#FE6A77"/>
<stop offset="1" stop-color="#FF57BD"/>
</linearGradient>
<linearGradient id="paint27_linear_19_56" x1="339.198" y1="388.373" x2="451.456" y2="295.69" gradientUnits="userSpaceOnUse">
<stop stop-color="#C5188E"/>
<stop offset="1" stop-color="#FF57BD"/>
</linearGradient>
<linearGradient id="paint28_linear_19_56" x1="428.383" y1="491.715" x2="745.721" y2="491.715" gradientUnits="userSpaceOnUse">
<stop stop-color="#C91C91"/>
<stop offset="1" stop-color="#FE6A77"/>
</linearGradient>
<linearGradient id="paint29_linear_19_56" x1="556.16" y1="418.613" x2="646.18" y2="418.613" gradientUnits="userSpaceOnUse">
<stop stop-color="#00E2EC"/>
<stop offset="1" stop-color="#0090B2"/>
</linearGradient>
<linearGradient id="paint30_linear_19_56" x1="732.578" y1="459.347" x2="846.6" y2="459.347" gradientUnits="userSpaceOnUse">
<stop stop-color="#00E2EC"/>
<stop offset="1" stop-color="#0090B2"/>
</linearGradient>
<linearGradient id="paint31_linear_19_56" x1="158.395" y1="434.571" x2="284.449" y2="434.571" gradientUnits="userSpaceOnUse">
<stop stop-color="#FE6A77"/>
<stop offset="1" stop-color="#C91C91"/>
</linearGradient>
<linearGradient id="paint32_linear_19_56" x1="158.503" y1="476.27" x2="193.314" y2="476.27" gradientUnits="userSpaceOnUse">
<stop stop-color="#00E2EC"/>
<stop offset="1" stop-color="#0090B2"/>
</linearGradient>
<linearGradient id="paint33_linear_19_56" x1="220.825" y1="612.57" x2="297.745" y2="612.57" gradientUnits="userSpaceOnUse">
<stop stop-color="#00E2EC"/>
<stop offset="1" stop-color="#0090B2"/>
</linearGradient>
<linearGradient id="paint34_linear_19_56" x1="251.811" y1="227.76" x2="261.194" y2="280.117" gradientUnits="userSpaceOnUse">
<stop stop-color="#C16846"/>
<stop offset="0.2653" stop-color="#D27565"/>
<stop offset="0.5308" stop-color="#DE7F7B"/>
<stop offset="0.7814" stop-color="#E58589"/>
<stop offset="1" stop-color="#E8878E"/>
</linearGradient>
<linearGradient id="paint35_linear_19_56" x1="199.041" y1="235.969" x2="261.498" y2="184.402" gradientUnits="userSpaceOnUse">
<stop stop-color="#E8878E"/>
<stop offset="1" stop-color="#F4BEA3"/>
</linearGradient>
<linearGradient id="paint36_linear_19_56" x1="240.829" y1="198.623" x2="259.622" y2="198.623" gradientUnits="userSpaceOnUse">
<stop stop-color="#FF57BD"/>
<stop offset="1" stop-color="#FE6A77"/>
</linearGradient>
<linearGradient id="paint37_linear_19_56" x1="177.414" y1="184.498" x2="253.146" y2="184.498" gradientUnits="userSpaceOnUse">
<stop stop-color="#994574"/>
<stop offset="1" stop-color="#43256F"/>
</linearGradient>
<radialGradient id="paint38_radial_19_56" cx="0" cy="0" r="1" gradientUnits="userSpaceOnUse" gradientTransform="translate(223.414 203.124) scale(76.4208 77.6681)">
<stop stop-color="#635AD5" stop-opacity="0"/>
<stop offset="0.1205" stop-color="#6960D7" stop-opacity="0.0482"/>
<stop offset="0.2878" stop-color="#7A72DB" stop-opacity="0.1151"/>
<stop offset="0.4824" stop-color="#9690E3" stop-opacity="0.193"/>
<stop offset="0.6977" stop-color="#BDB9ED" stop-opacity="0.2791"/>
<stop offset="0.9273" stop-color="#EEEDFA" stop-opacity="0.3709"/>
<stop offset="1" stop-color="white" stop-opacity="0.4"/>
</radialGradient>
<linearGradient id="paint39_linear_19_56" x1="147.213" y1="206.144" x2="270.542" y2="206.144" gradientUnits="userSpaceOnUse">
<stop stop-color="#00E2EC"/>
<stop offset="1" stop-color="#0090B2"/>
</linearGradient>
<linearGradient id="paint40_linear_19_56" x1="166.831" y1="255.551" x2="184.971" y2="240.575" gradientUnits="userSpaceOnUse">
<stop stop-color="#A281FF"/>
<stop offset="0.0945" stop-color="#B17AF5"/>
<stop offset="0.3504" stop-color="#D36BDD"/>
<stop offset="0.5934" stop-color="#EB60CB"/>
<stop offset="0.8163" stop-color="#FA59C1"/>
<stop offset="1" stop-color="#FF57BD"/>
</linearGradient>
<linearGradient id="paint41_linear_19_56" x1="197.639" y1="268.673" x2="322.725" y2="268.673" gradientUnits="userSpaceOnUse">
<stop stop-color="#00E2EC"/>
<stop offset="1" stop-color="#0090B2"/>
</linearGradient>
<linearGradient id="paint42_linear_19_56" x1="353.478" y1="153.914" x2="400.491" y2="153.914" gradientUnits="userSpaceOnUse">
<stop stop-color="#653271"/>
<stop offset="0.1129" stop-color="#5B2F65"/>
<stop offset="0.496" stop-color="#3D263F"/>
<stop offset="0.8053" stop-color="#2A2128"/>
<stop offset="1" stop-color="#231F20"/>
</linearGradient>
<linearGradient id="paint43_linear_19_56" x1="356.241" y1="131.573" x2="397.857" y2="172.521" gradientUnits="userSpaceOnUse">
<stop stop-color="#84DBF1"/>
<stop offset="1" stop-color="#FFE2A8"/>
</linearGradient>
<linearGradient id="paint44_linear_19_56" x1="328.101" y1="443.982" x2="434.277" y2="443.982" gradientUnits="userSpaceOnUse">
<stop stop-color="#FDE1A7"/>
<stop offset="1" stop-color="#F9A144"/>
</linearGradient>
<linearGradient id="paint45_linear_19_56" x1="594.632" y1="112.748" x2="681.831" y2="112.748" gradientUnits="userSpaceOnUse">
<stop stop-color="#FDE1A7"/>
<stop offset="1" stop-color="#F9A144"/>
</linearGradient>
<linearGradient id="paint46_linear_19_56" x1="535.649" y1="314.029" x2="621.32" y2="314.029" gradientUnits="userSpaceOnUse">
<stop stop-color="#FDE1A7"/>
<stop offset="1" stop-color="#F9A144"/>
</linearGradient>
<linearGradient id="paint47_linear_19_56" x1="20.2119" y1="489.999" x2="101.826" y2="489.999" gradientUnits="userSpaceOnUse">
<stop stop-color="#FDE1A7"/>
<stop offset="1" stop-color="#F9A144"/>
</linearGradient>
<linearGradient id="paint48_linear_19_56" x1="-6.88438" y1="676.425" x2="75.9248" y2="676.425" gradientUnits="userSpaceOnUse">
<stop stop-color="#FDE1A7"/>
<stop offset="1" stop-color="#F9A144"/>
</linearGradient>
</defs>
</svg>
